<svg xmlns="http://www.w3.org/2000/svg" viewBox="0 0 500 500"><g id="freepik--background-complete--inject-67"><path d="M61.7,54.15c45.77-.66,96.65-.64,142.45,0-45.81.65-96.67.67-142.45,0Z" style="fill:#ebebeb"></path><path d="M45.57,73.46c47.16-.67,99.58-.65,146.77,0-47.2.64-99.6.66-146.77,0Z" style="fill:#ebebeb"></path><path d="M76.44,54.15a90.33,90.33,0,0,1,0,19.31,91,91,0,0,1,0-19.31Z" style="fill:#ebebeb"></path><path d="M148.29,54.15a90.33,90.33,0,0,1,0,19.31,91,91,0,0,1,0-19.31Z" style="fill:#ebebeb"></path><path d="M112.37,73.37a91,91,0,0,1,0,19.31,90.33,90.33,0,0,1,0-19.31Z" style="fill:#ebebeb"></path><path d="M375.16,54.15c22.87-.67,45.9-.67,68.78,0-22.88.68-45.91.68-68.78,0Z" style="fill:#ebebeb"></path><path d="M351.5,73.46c33.3-.67,70.31-.65,103.63,0-33.32.64-70.33.66-103.63,0Z" style="fill:#ebebeb"></path><path d="M411.08,54.15a91,91,0,0,1,0,19.31,91,91,0,0,1,0-19.31Z" style="fill:#ebebeb"></path><path d="M375.16,73.37a91,91,0,0,1,0,19.31,90.33,90.33,0,0,1,0-19.31Z" style="fill:#ebebeb"></path><path d="M111.5,340.88c45.77-.67,96.65-.65,142.45,0-45.81.65-96.67.66-142.45,0Z" style="fill:#ebebeb"></path><path d="M77.34,360.18c47.16-.66,99.59-.65,146.78,0-47.2.65-99.61.66-146.78,0Z" style="fill:#ebebeb"></path><path d="M248.24,321.71c29.37-.67,62-.65,91.4,0-29.39.65-62,.66-91.4,0Z" style="fill:#ebebeb"></path><path d="M280.59,340.88c29.36-.67,62-.65,91.39,0-29.39.65-62,.66-91.39,0Z" style="fill:#ebebeb"></path><path d="M148.32,340.88a90.23,90.23,0,0,1,0,19.3,90.89,90.89,0,0,1,0-19.3Z" style="fill:#ebebeb"></path><path d="M220.2,340.88a90.23,90.23,0,0,1,0,19.3,90.89,90.89,0,0,1,0-19.3Z" style="fill:#ebebeb"></path><path d="M292.08,340.88a90.23,90.23,0,0,1,0,19.3,90.89,90.89,0,0,1,0-19.3Z" style="fill:#ebebeb"></path><path d="M364,340.88a90.23,90.23,0,0,1,0,19.3,90.89,90.89,0,0,1,0-19.3Z" style="fill:#ebebeb"></path><path d="M112.37,360.1a90.89,90.89,0,0,1,0,19.3,90.23,90.23,0,0,1,0-19.3Z" style="fill:#ebebeb"></path><path d="M184.36,360.1a90.23,90.23,0,0,1,0,19.3,90.89,90.89,0,0,1,0-19.3Z" style="fill:#ebebeb"></path><path d="M328.36,321.17a90.89,90.89,0,0,1,0,19.3,90.23,90.23,0,0,1,0-19.3Z" style="fill:#ebebeb"></path><path d="M248.24,231.89c29.37-.67,62-.65,91.4,0-29.39.65-62,.66-91.4,0Z" style="fill:#ebebeb"></path><path d="M280.59,251.06c29.36-.66,62-.65,91.39,0-29.39.65-62,.66-91.39,0Z" style="fill:#ebebeb"></path><path d="M292.08,251.06a90.23,90.23,0,0,1,0,19.3,90.89,90.89,0,0,1,0-19.3Z" style="fill:#ebebeb"></path><path d="M364,251.06a90.23,90.23,0,0,1,0,19.3,90.89,90.89,0,0,1,0-19.3Z" style="fill:#ebebeb"></path><path d="M328.36,231.35a90.89,90.89,0,0,1,0,19.3,90.23,90.23,0,0,1,0-19.3Z" style="fill:#ebebeb"></path><path d="M117.56,156.7c47.16-.67,99.59-.65,146.78,0-47.2.65-99.61.66-146.78,0Z" style="fill:#ebebeb"></path><path d="M168.38,176c31.69-.66,66.93-.65,98.64,0-31.72.65-66.94.67-98.64,0Z" style="fill:#ebebeb"></path><path d="M220.29,137.4a90.89,90.89,0,0,1,0,19.3,90.23,90.23,0,0,1,0-19.3Z" style="fill:#ebebeb"></path><path d="M184.36,156.7a90.23,90.23,0,0,1,0,19.3,90.89,90.89,0,0,1,0-19.3Z" style="fill:#ebebeb"></path><path d="M351.09,156.7c33.56-.67,70.87-.65,104.46,0-33.59.65-70.89.66-104.46,0Z" style="fill:#ebebeb"></path><path d="M359.58,176c24.59-.67,49.34-.67,73.94,0-24.6.67-49.34.67-73.94,0Z" style="fill:#ebebeb"></path><path d="M411.5,175.78a91,91,0,0,1,0,19.31,89.68,89.68,0,0,1,0-19.31Z" style="fill:#ebebeb"></path><path d="M375.57,156.7a90.23,90.23,0,0,1,0,19.3,90.89,90.89,0,0,1,0-19.3Z" style="fill:#ebebeb"></path><path d="M256.21,156.7a90.23,90.23,0,0,1,0,19.3,90.89,90.89,0,0,1,0-19.3Z" style="fill:#ebebeb"></path><path d="M95.39,231.87c20.31-.67,40.75-.67,61.06,0-20.31.67-40.75.67-61.06,0Z" style="fill:#ebebeb"></path><path d="M81.11,251.17c31.7-.66,66.93-.65,98.65,0-31.72.65-66.95.67-98.65,0Z" style="fill:#ebebeb"></path><path d="M112.4,212.57a90.89,90.89,0,0,1,0,19.3,90.23,90.23,0,0,1,0-19.3Z" style="fill:#ebebeb"></path><path d="M148.32,231.87a90.23,90.23,0,0,1,0,19.3,90.89,90.89,0,0,1,0-19.3Z" style="fill:#ebebeb"></path><circle cx="77.34" cy="177.67" r="8.78" style="fill:#ebebeb"></circle><rect x="63.05" y="97.86" width="28.59" height="85.26" style="fill:#dbdbdb"></rect><rect x="68.16" y="97.86" width="5.88" height="85.26" style="fill:#fff;opacity:0.4"></rect><rect x="75.79" width="3.1" height="97.86" style="fill:#a6a6a6"></rect><rect x="70.2" y="84.51" width="14.3" height="13.35" style="fill:#c7c7c7"></rect><circle cx="125.92" cy="157.67" r="8.78" style="fill:#ebebeb"></circle><rect x="111.63" y="77.86" width="28.59" height="85.26" style="fill:#dbdbdb"></rect><rect x="116.74" y="77.86" width="5.88" height="85.26" style="fill:#fff;opacity:0.4"></rect><rect x="124.37" width="3.1" height="77.86" style="fill:#a6a6a6"></rect><rect x="118.77" y="64.51" width="14.3" height="13.35" style="fill:#c7c7c7"></rect><circle cx="174.5" cy="137.67" r="8.78" style="fill:#ebebeb"></circle><rect x="160.2" y="57.86" width="28.59" height="85.26" style="fill:#dbdbdb"></rect><rect x="165.32" y="57.86" width="5.88" height="85.26" style="fill:#fff;opacity:0.4"></rect><rect x="172.95" width="3.1" height="57.86" style="fill:#a6a6a6"></rect><rect x="167.35" y="44.51" width="14.3" height="13.35" style="fill:#c7c7c7"></rect></g><g id="freepik--Character--inject-67"><path d="M214.61,230.41c.2,1.29,2.91,3.28,5.29,4.89a55.87,55.87,0,0,0,6.25,3.62c-.22-7.57.53-15.37,1.1-22.82.67-8.76,1.94-17.3,3.4-25.93,0-.13.22-.1.21,0-.84,8.77-1.37,17.6-2,26.37-.53,7.69-.45,15.49-1,23.18,2.23,1,4.51,1.95,6.81,2.79,0-2.69,0-5.38.05-8.07.13-8.1,1-16.07,1.55-24.14a.14.14,0,1,1,.27,0c-.43,7.86-.19,15.83-.23,23.7,0,3,0,6.07,0,9.11q2.38.8,4.72,1.52c1,.31,2.08.62,3.12.88.14-5.31.59-10.65.87-15.84.46-8.41,1.45-16.75,2-25.15a.21.21,0,1,1,.42,0c-.53,8.36-.51,16.79-.85,25.16-.22,5.38-.21,10.9-.47,16.36A127,127,0,0,0,289,248.83a191.3,191.3,0,0,0,24.64-4.1c2-.44,7-1.75,11.91-3.11.09-2.54.24-5.08.3-7.53.12-5.6.57-11.23.54-16.83a.12.12,0,1,1,.23,0c.21,5.62.76,11.2.8,16.84,0,2.26.08,4.6.07,7,1.76-.49,3.46-1,5-1.43-.41-10.59.43-21.33.64-31.87a.18.18,0,1,1,.35,0c.28,10.36,1.18,20.87.89,31.29a18.11,18.11,0,0,0,3.28-1.23c2.47-1.89,2.92-108.7-2.25-126.23-1.87-6.35-7.84-25.47-30.32-35.47-7.17-3.19-15.75-1.32-23.35-2.72C211.74,60.52,214.26,228.19,214.61,230.41Z" style="fill:#263238"></path><path d="M264.57,239.46C231.79,309,179.25,394.23,153,390.41c-29.27-4.25-6.12-83.31-3.26-86.77,3.21-3.86,44.23-49.86,87.57-83.23C284.82,183.82,272.68,222.26,264.57,239.46Z" style="fill:#c7c7c7"></path><path d="M264.57,239.46C231.79,309,179.25,394.23,153,390.41c-29.27-4.25-6.12-83.31-3.26-86.77,3.21-3.86,44.23-49.86,87.57-83.23C284.82,183.82,272.68,222.26,264.57,239.46Z" style="fill:#ffc4c0"></path><path d="M209.64,236.16l51.08,30.23s12-28.53,15.18-47.59-11.26-23.4-33.24-8.14S209.64,236.16,209.64,236.16Z" style="fill:#163020"></path><path d="M231,225a3.2,3.2,0,1,0,3.24,3.24A3.23,3.23,0,0,0,231,225Zm0,5.42a2.15,2.15,0,0,1-2.14-2.18,2.17,2.17,0,1,1,4.33,0A2.16,2.16,0,0,1,231,230.41ZM263.4,225a3.2,3.2,0,1,0,3.24,3.24A3.24,3.24,0,0,0,263.4,225Zm0,5.42a2.15,2.15,0,0,1-2.15-2.18,2.17,2.17,0,1,1,4.33,0A2.16,2.16,0,0,1,263.4,230.41Zm-14.57-23.64h0a2.17,2.17,0,0,1-1.2.69h0l-1.4.87a3.12,3.12,0,0,0,1,.15,3.22,3.22,0,0,0,3.17-2.53C249.85,206.21,249.34,206.48,248.83,206.77ZM247.17,249a3.2,3.2,0,0,0,0,6.4,3.2,3.2,0,1,0,0-6.4Zm0,5.39a2.18,2.18,0,0,1-2.15-2.19,2.19,2.19,0,0,1,4.37,0A2.2,2.2,0,0,1,247.17,254.4Z" style="fill:#fff"></path><path d="M261.85,253.13c-16.27-12-35.22-22.15-38.39-24.15-.15-.1-.29.15-.13.24,3.22,1.8,23.59,15.73,38.37,24.17A.15.15,0,0,0,261.85,253.13Z" style="fill:#263238"></path><path d="M275.9,218.8c-3.16,19.06-15.18,47.59-15.18,47.59l-34.6-20.47,44.48-43.36C275.25,204.79,277.3,210.35,275.9,218.8Z" style="opacity:0.1"></path><path d="M206.83,402.76l13.38-75.55s-13.23-21.56-7.5-38.07c6.55-18.88,29.42-64.63,48.63-82.35,24.34-22.46,50-8.56,59.6,5.45,19.23,28,47.15,83.81,62.29,190.55Z" style="fill:#163020"></path><path d="M376.86,389.66a3.22,3.22,0,0,0-3.16,3.24,3.2,3.2,0,0,0,6.4,0A3.24,3.24,0,0,0,376.86,389.66Zm0,5.43a2.18,2.18,0,0,1-2.15-2.19,2.19,2.19,0,0,1,4.37,0A2.2,2.2,0,0,1,376.86,395.09Zm-32.42-5.43a3.23,3.23,0,0,0-3.17,3.24,3.2,3.2,0,0,0,6.4,0A3.24,3.24,0,0,0,344.44,389.66Zm0,5.43a2.18,2.18,0,0,1-2.15-2.19,2.19,2.19,0,0,1,4.37,0A2.2,2.2,0,0,1,344.44,395.09ZM312,389.66a3.22,3.22,0,0,0-3.16,3.24,3.2,3.2,0,0,0,6.4,0A3.24,3.24,0,0,0,312,389.66Zm0,5.43a2.18,2.18,0,0,1-2.14-2.19,2.19,2.19,0,0,1,4.37,0A2.2,2.2,0,0,1,312,395.09Zm-32.42-5.43a3.22,3.22,0,0,0-3.16,3.24,3.2,3.2,0,0,0,6.4,0A3.24,3.24,0,0,0,279.59,389.66Zm0,5.43a2.18,2.18,0,0,1-2.15-2.19,2.19,2.19,0,0,1,4.37,0A2.2,2.2,0,0,1,279.59,395.09Zm-32.42-5.43A3.23,3.23,0,0,0,244,392.9a3.21,3.21,0,0,0,6.41,0A3.25,3.25,0,0,0,247.17,389.66Zm0,5.43A2.18,2.18,0,0,1,245,392.9a2.19,2.19,0,0,1,4.37,0A2.2,2.2,0,0,1,247.17,395.09Zm-32.43-5.43a3.22,3.22,0,0,0-3.16,3.24,3.2,3.2,0,0,0,6.4,0A3.24,3.24,0,0,0,214.74,389.66Zm0,5.43a2.18,2.18,0,0,1-2.14-2.19,2.19,2.19,0,0,1,4.37,0A2.2,2.2,0,0,1,214.74,395.09Zm129.7-52.31a3.2,3.2,0,1,0,3.23,3.24A3.2,3.2,0,0,0,344.44,342.78Zm0,5.42a2.19,2.19,0,1,1,2.22-2.18A2.18,2.18,0,0,1,344.44,348.2ZM312,342.78a3.2,3.2,0,1,0,3.24,3.24A3.2,3.2,0,0,0,312,342.78Zm0,5.42a2.19,2.19,0,1,1,2.23-2.18A2.18,2.18,0,0,1,312,348.2Zm-32.42-5.42a3.2,3.2,0,1,0,3.24,3.24A3.2,3.2,0,0,0,279.59,342.78Zm0,5.42a2.19,2.19,0,1,1,2.22-2.18A2.18,2.18,0,0,1,279.59,348.2Zm-32.42-5.42a3.2,3.2,0,1,0,3.24,3.24A3.21,3.21,0,0,0,247.17,342.78Zm0,5.42a2.19,2.19,0,1,1,2.22-2.18A2.18,2.18,0,0,1,247.17,348.2ZM217.25,344l-.31,1.73a1.87,1.87,0,0,1,0,.34,2.15,2.15,0,0,1-.27,1h0l-.29,1.66A3.13,3.13,0,0,0,218,346,3.3,3.3,0,0,0,217.25,344Zm143.42,21.73a3.2,3.2,0,1,0,3.24,3.23A3.2,3.2,0,0,0,360.67,365.68Zm0,5.42a2.18,2.18,0,0,1-2.15-2.19,2.19,2.19,0,0,1,4.37,0A2.2,2.2,0,0,1,360.67,371.1Zm-32.43-5.42a3.2,3.2,0,1,0,3.24,3.23A3.24,3.24,0,0,0,328.24,365.68Zm0,5.42a2.15,2.15,0,0,1-2.14-2.19,2.17,2.17,0,1,1,4.33,0A2.16,2.16,0,0,1,328.24,371.1Zm-32.42-5.42a3.2,3.2,0,1,0,3.24,3.23A3.24,3.24,0,0,0,295.82,365.68Zm0,5.42a2.16,2.16,0,0,1-2.15-2.19,2.17,2.17,0,1,1,4.33,0A2.16,2.16,0,0,1,295.82,371.1Zm-32.42-5.42a3.2,3.2,0,1,0,3.24,3.23A3.24,3.24,0,0,0,263.4,365.68Zm0,5.42a2.16,2.16,0,0,1-2.15-2.19,2.17,2.17,0,1,1,4.33,0A2.16,2.16,0,0,1,263.4,371.1ZM231,365.68a3.2,3.2,0,1,0,3.24,3.23A3.23,3.23,0,0,0,231,365.68Zm0,5.42a2.15,2.15,0,0,1-2.14-2.19,2.17,2.17,0,1,1,4.33,0A2.16,2.16,0,0,1,231,371.1Zm113.47-75.2a3.2,3.2,0,1,0,3.23,3.23A3.2,3.2,0,0,0,344.44,295.9Zm0,5.42a2.18,2.18,0,0,1-2.15-2.19,2.19,2.19,0,0,1,4.37,0A2.2,2.2,0,0,1,344.44,301.32ZM312,295.9a3.2,3.2,0,1,0,3.24,3.23A3.2,3.2,0,0,0,312,295.9Zm0,5.42a2.18,2.18,0,0,1-2.14-2.19,2.19,2.19,0,0,1,4.37,0A2.2,2.2,0,0,1,312,301.32Zm-32.42-5.42a3.2,3.2,0,1,0,3.24,3.23A3.2,3.2,0,0,0,279.59,295.9Zm0,5.42a2.18,2.18,0,0,1-2.15-2.19,2.19,2.19,0,0,1,4.37,0A2.2,2.2,0,0,1,279.59,301.32Zm-32.42-5.42a3.2,3.2,0,1,0,3.24,3.23A3.2,3.2,0,0,0,247.17,295.9Zm0,5.42a2.18,2.18,0,0,1-2.15-2.19,2.19,2.19,0,0,1,4.37,0A2.2,2.2,0,0,1,247.17,301.32Zm-32.43-5.42a3.2,3.2,0,1,0,3.24,3.23A3.2,3.2,0,0,0,214.74,295.9Zm0,5.42a2.18,2.18,0,0,1-2.14-2.19,2.19,2.19,0,0,1,4.37,0A2.2,2.2,0,0,1,214.74,301.32Zm145.93,17.47a3.2,3.2,0,1,0,3.24,3.24A3.2,3.2,0,0,0,360.67,318.79Zm0,5.42a2.2,2.2,0,1,1,2.22-2.18A2.2,2.2,0,0,1,360.67,324.21Zm-32.43-5.42a3.2,3.2,0,1,0,3.24,3.24A3.24,3.24,0,0,0,328.24,318.79Zm0,5.42a2.2,2.2,0,1,1,2.19-2.18A2.17,2.17,0,0,1,328.24,324.21Zm-32.42-5.42a3.2,3.2,0,1,0,3.24,3.24A3.24,3.24,0,0,0,295.82,318.79Zm0,5.42A2.2,2.2,0,1,1,298,322,2.18,2.18,0,0,1,295.82,324.21Zm-32.42-5.42a3.2,3.2,0,1,0,3.24,3.24A3.24,3.24,0,0,0,263.4,318.79Zm0,5.42a2.2,2.2,0,1,1,2.18-2.18A2.17,2.17,0,0,1,263.4,324.21ZM231,318.79a3.2,3.2,0,1,0,3.24,3.24A3.23,3.23,0,0,0,231,318.79Zm0,5.42a2.2,2.2,0,1,1,2.19-2.18A2.17,2.17,0,0,1,231,324.21Zm113.12-69.84a2.19,2.19,0,0,1-1.8-2.16,2,2,0,0,1,.32-1.13l-.48-1.05a3.16,3.16,0,0,0-.86,2.18,3.21,3.21,0,0,0,3.17,3.2h.11C344.4,255.06,344.25,254.71,344.09,254.37ZM312,249a3.2,3.2,0,0,0,0,6.4,3.2,3.2,0,1,0,0-6.4Zm0,5.39a2.18,2.18,0,0,1-2.14-2.19,2.19,2.19,0,0,1,4.37,0A2.2,2.2,0,0,1,312,254.4ZM279.59,249a3.2,3.2,0,0,0,0,6.4,3.2,3.2,0,1,0,0-6.4Zm0,5.39a2.18,2.18,0,0,1-2.15-2.19,2.19,2.19,0,0,1,4.37,0A2.2,2.2,0,0,1,279.59,254.4ZM247.17,249a3.2,3.2,0,0,0,0,6.4,3.2,3.2,0,1,0,0-6.4Zm0,5.39a2.18,2.18,0,0,1-2.15-2.19,2.19,2.19,0,0,1,4.37,0A2.2,2.2,0,0,1,247.17,254.4Zm81.07,17.47a3.22,3.22,0,0,0,0,6.44,3.22,3.22,0,1,0,0-6.44Zm0,5.42a2.15,2.15,0,0,1-2.14-2.18,2.17,2.17,0,1,1,4.33,0A2.16,2.16,0,0,1,328.24,277.29Zm-32.42-5.42a3.22,3.22,0,0,0,0,6.44,3.22,3.22,0,1,0,0-6.44Zm0,5.42a2.16,2.16,0,0,1-2.15-2.18,2.17,2.17,0,1,1,4.33,0A2.16,2.16,0,0,1,295.82,277.29Zm-32.42-5.42a3.22,3.22,0,1,0,3.24,3.24A3.27,3.27,0,0,0,263.4,271.87Zm0,5.42a2.15,2.15,0,0,1-2.15-2.18,2.17,2.17,0,1,1,4.33,0A2.16,2.16,0,0,1,263.4,277.29ZM231,271.87a3.22,3.22,0,1,0,3.24,3.24A3.26,3.26,0,0,0,231,271.87Zm0,5.42a2.15,2.15,0,0,1-2.14-2.18,2.17,2.17,0,1,1,4.33,0A2.16,2.16,0,0,1,231,277.29Zm83.21-72.47a2.1,2.1,0,0,1,.06.51,2.19,2.19,0,0,1-4.37,0,2.15,2.15,0,0,1,2.14-2.18h.12c-.39-.3-.79-.59-1.19-.88a3.24,3.24,0,0,0-2.09,3.05,3.2,3.2,0,0,0,6.37.4C314.88,205.42,314.53,205.11,314.18,204.82Zm-34.59-2.73a3.2,3.2,0,1,0,3.24,3.24A3.2,3.2,0,0,0,279.59,202.09Zm0,5.42a2.18,2.18,0,1,1,2.22-2.18A2.17,2.17,0,0,1,279.59,207.51Zm49.54,17.6a3.3,3.3,0,0,0-.89-.12,3.2,3.2,0,0,0,0,6.4,3.25,3.25,0,0,0,3.14-2.4C330.62,227.66,329.87,226.36,329.13,225.11Zm-.89,5.3a2.15,2.15,0,0,1-2.14-2.18,2.17,2.17,0,1,1,4.33,0A2.16,2.16,0,0,1,328.24,230.41ZM295.82,225a3.2,3.2,0,1,0,3.24,3.24A3.24,3.24,0,0,0,295.82,225Zm0,5.42a2.16,2.16,0,0,1-2.15-2.18,2.17,2.17,0,1,1,4.33,0A2.16,2.16,0,0,1,295.82,230.41ZM263.4,225a3.2,3.2,0,1,0,3.24,3.24A3.24,3.24,0,0,0,263.4,225Zm0,5.42a2.15,2.15,0,0,1-2.15-2.18,2.17,2.17,0,1,1,4.33,0A2.16,2.16,0,0,1,263.4,230.41Z" style="fill:#fff"></path><path d="M274.85,320.29a170.74,170.74,0,0,0-25.17,1.22c-4.14.57-8.23,1.32-12.32,2.17-2,.42-4.08.77-6.14,1.11a27.28,27.28,0,0,1-6.5.47.15.15,0,0,0,0,.3,46.91,46.91,0,0,0,6.14.59,45.84,45.84,0,0,0,6-.43c4.21-.54,8.39-1.27,12.59-1.85,8.47-1.17,16.94-2.33,25.49-2.88C275.27,321,275.25,320.29,274.85,320.29Z" style="fill:#263238"></path><path d="M294.56,330A182.4,182.4,0,0,0,274,326.65c-3.45-.36-6.9-.51-10.37-.57-1.66,0-3.32,0-5,0-1.83,0-3.65.29-5.47.28-.19,0-.23.3,0,.3,1.72.06,3.43.4,5.15.55l5.16.46c3.45.31,6.89.66,10.34.94,6.9.55,13.77,1.18,20.66,2C294.88,330.61,294.91,330.08,294.56,330Z" style="fill:#263238"></path><path d="M348.31,345c-2.15-6.73-35.58-89.7-45.17-115.94-8.61-23.56-4.32-33.32,15.5-18.88,36.49,26.6,134.18,138,118.16,164.7C414.56,411.88,348.31,345,348.31,345Z" style="fill:#ffc4c0"></path><path d="M362,239.25l-52.7,27.31s-10.39-29.16-12.48-48.37,12.56-22.73,33.64-6.25S362,239.25,362,239.25Z" style="fill:#163020"></path><path d="M298,225.79c.23,1.26.49,2.55.76,3.84a2.91,2.91,0,0,0,.35-1.4A3.21,3.21,0,0,0,298,225.79Zm30.29-.8a3.2,3.2,0,1,0,3.24,3.24A3.24,3.24,0,0,0,328.24,225Zm0,5.42a2.15,2.15,0,0,1-2.14-2.18,2.17,2.17,0,1,1,4.33,0A2.16,2.16,0,0,1,328.24,230.41Zm-15-28.07,0,0-.63-.17a2.88,2.88,0,0,0-.59-.06,3.21,3.21,0,1,0,1.27.25ZM312,207.51a2.18,2.18,0,1,1,2.23-2.18A2.17,2.17,0,0,1,312,207.51Zm0,41.5a3.2,3.2,0,0,0,0,6.4,3.2,3.2,0,1,0,0-6.4Zm0,5.39a2.18,2.18,0,0,1-2.14-2.19,2.19,2.19,0,0,1,4.37,0A2.2,2.2,0,0,1,312,254.4Z" style="fill:#fff"></path><path d="M308.91,253.26c16.91-11,36.4-20.13,39.69-21.95.15-.09.28.17.11.25-3.31,1.62-24.43,14.37-39.67,22C308.86,253.62,308.75,253.37,308.91,253.26Z" style="fill:#263238"></path><path d="M315.8,263.19c-2.22,1.43-4.49,2.77-6.76,4.11-.89-2.12-1.73-4.27-2.48-6.44a99.06,99.06,0,0,1-4.68-18.18,106,106,0,0,1,7.9,23.73l-.73-.31c2.24-1,4.47-2,6.75-2.91Z" style="fill:#263238"></path><path d="M300.54,247.16c1.71,3.08,3,6.24,5.41,8.86-3.09-1.82-4.71-5.47-5.41-8.86Z" style="fill:#263238"></path><path d="M435.4,377.13c-12.76,14.3-37.74,15.08-113.5,20.79-10.49.79-36-71.7-24.82-73.12,14.05-1.79,68.95-5.68,73-5.46C404.25,321.21,444.05,367.42,435.4,377.13Z" style="fill:#ffc4c0"></path><path d="M308.93,327.08s-28.82-7.59-45.2-6.89c-21.93.93-40.47,10.77-48,15.36-15.7,9.58-47,43.61-38.82,54.35,7.45,9.72,37.73-26.68,37.73-26.68s-37,32-25.88,42.07,43.86-34.2,43.86-34.2-37.28,33.75-24.17,42.31c9.9,6.46,41.82-31.95,41.82-31.95s-31.84,29.23-21.94,36.32C239.27,425.6,271,392,271,392c28.19,13.78,47.25,8.81,60.39,3.66C334.53,394.41,308.93,327.08,308.93,327.08Z" style="fill:#ffc4c0"></path><path d="M226.73,351.32c-4.49,3.6-9,7.22-13.19,11.21s-8.16,8.13-11.92,12.49c-9.21,10.69-13.31,18.82-13,18.35,7.28-11.23,21.9-25.75,26-29.74s8.08-8.17,12.21-12.16C227,351.37,226.83,351.24,226.73,351.32Z" style="fill:#263238"></path><path d="M241.41,366c-5.53,4.85-11.19,9.46-16.5,14.56s-9.86,10.34-14.78,15.76c-.38.42,0,.49.37.08,5.13-5.22,10.28-9.65,15.48-14.81s10.19-10.52,15.55-15.47C241.62,366.08,241.49,366,241.41,366Z" style="fill:#263238"></path><path d="M256.28,376.39c-8.83,7-16.35,15.58-23.53,24.19-.36.43.1.47.49.05,7.67-8.19,13.63-14.67,23.28-23.93C256.67,376.56,256.46,376.25,256.28,376.39Z" style="fill:#263238"></path><path d="M344.77,320.78c9.86-1.57,19.89-2.65,29.89-1.84,10,1.46,19.12,6.41,27.55,11.73-9.06-3.73-18-8.27-27.77-9.76-8.47-.87-21-.2-29.67-.13Z" style="fill:#263238"></path><path d="M299.73,207.16c-.67,3.42-14.56,24.77-29.94,22-10.82-2-7.64-23.79-7.64-23.79L254.2,175l37.57-25.75S300,205.71,299.73,207.16Z" style="fill:#ffc4c0"></path><path d="M294.64,169.08a59.87,59.87,0,0,1-32.93,34.57L254.19,175l37.58-25.76S293.07,158.21,294.64,169.08Z" style="fill:#263238"></path><path d="M222.53,119.49c-19.3,47.6,7.09,64.53,17.39,68.68,9.34,3.77,41.63,15.41,65.76-30s8.05-69.38-12.86-79.12S241.84,71.87,222.53,119.49Z" style="fill:#ffc4c0"></path><path d="M233.5,117.38a35.27,35.27,0,0,0,3.55.36c1.36.12,2.44.36,3.69-.32a1.84,1.84,0,0,0,.68-2.14c-.69-1.6-2.32-2.16-4-2.38a6.7,6.7,0,0,0-4.72,1A2,2,0,0,0,233.5,117.38Z" style="fill:#263238"></path><path d="M265.73,129.3a33.83,33.83,0,0,1-3.1-1.76c-1.18-.69-2.2-1.12-2.82-2.4a1.81,1.81,0,0,1,.68-2.13c1.49-.91,3.15-.42,4.61.35a6.62,6.62,0,0,1,3.28,3.53A2,2,0,0,1,265.73,129.3Z" style="fill:#263238"></path><path d="M246.25,164.81c-1,.59-2.11,1.49-3.38,1.28a9.34,9.34,0,0,1-3.45-1.79.12.12,0,0,0-.19.14,4.74,4.74,0,0,0,3.86,2.94c1.62.13,2.72-1,3.45-2.33C246.64,164.87,246.4,164.73,246.25,164.81Z" style="fill:#263238"></path><path d="M236,148.29s-2.27,4.79-3,7.15c-.07.22.47.5,1.26.8,0,0,.05,0,.09,0a11.8,11.8,0,0,0,12.24-.75.26.26,0,0,0-.25-.44c-3.84,1.3-7.47.81-11.19-.29,0-.71,4.16-8.07,3.79-8.22-1.26-.51-4.08-.44-5.75-.47,4.44-10.11,10.46-19.42,14.73-29.55.15-.37-.36-.65-.57-.35-7,9.32-12.37,20.84-17.22,31.16C229.53,148.64,235,148.39,236,148.29Z" style="fill:#263238"></path><path d="M236,155.94a12.34,12.34,0,0,0,3.38,5.29,5.53,5.53,0,0,0,3.12,1.34c2.53.22,3.34-1.88,3.57-3.84a13.12,13.12,0,0,0-.05-3.15A16,16,0,0,1,236,155.94Z" style="fill:#263238"></path><path d="M239.42,161.23a5.53,5.53,0,0,0,3.12,1.34c2.53.22,3.34-1.88,3.57-3.84C243.54,158.1,240.49,158.9,239.42,161.23Z" style="fill:#ff9cbd"></path><path d="M260.74,140.29a3.82,3.82,0,0,0,.5,1.12,2.27,2.27,0,0,0,1.59,1c2,.33,3.42-1.48,4.09-3.45.05-.14,0-.25-.12-.17-1.1.8-2.33,1.59-3.42,1.11a4.3,4.3,0,0,1-1.61-1.93A11,11,0,0,1,260.74,140.29Z" style="fill:#263238"></path><path d="M261.89,140a5.28,5.28,0,0,0-.32-2.79,3.81,3.81,0,0,0-2.26-2,3.44,3.44,0,0,0-3.05.52,5.92,5.92,0,0,0-1.75,2.14,12.22,12.22,0,0,0-.62,1.55,7.56,7.56,0,0,0-.31,3.43,11.41,11.41,0,0,1,.89-2.35,16.13,16.13,0,0,1,1.15-1.95c.9-1.26,2.1-2.17,3.19-1.74s1.76,1.59,1.77,3.15a24.66,24.66,0,0,1-.56,4.79A10.94,10.94,0,0,0,261.89,140Z" style="fill:#263238"></path><path d="M230.68,129.76a3.67,3.67,0,0,1-1.08.58,2.21,2.21,0,0,1-1.89-.14c-1.81-1-1.81-3.25-1.15-5.23.05-.14.15-.2.2-.06.39,1.3.88,2.69,2.05,3a4.33,4.33,0,0,0,2.44-.55A11.07,11.07,0,0,0,230.68,129.76Z" style="fill:#263238"></path><path d="M229.92,128.86a5.3,5.3,0,0,1,2-2,3.78,3.78,0,0,1,3-.24,3.45,3.45,0,0,1,2.1,2.26,6.08,6.08,0,0,1,.09,2.77,12.85,12.85,0,0,1-.46,1.61,7.5,7.5,0,0,1-1.83,2.91,11.87,11.87,0,0,0,.72-2.41,14.83,14.83,0,0,0,.27-2.25c0-1.54-.35-3-1.48-3.32s-2.36.2-3.31,1.43a24.23,24.23,0,0,0-2.47,4.14A10.89,10.89,0,0,1,229.92,128.86Z" style="fill:#263238"></path><path d="M301.81,160.31C292.46,159.34,295,138,295,138s-37.2-15.58-33.14-47.88c0,0-13.69,17.38-36.09,21.76,0,0,14.26-37.8,43.23-38.14,0,0,32.65-3.65,47.07,27.78C330.81,133.72,308.09,161,301.81,160.31Z" style="fill:#263238"></path><path d="M262.23,87.74a35.37,35.37,0,0,0-1.62,14.8A36.69,36.69,0,0,0,265,117a30.36,30.36,0,0,0,2,3.22l1.05,1.59c.39.49.81,1,1.22,1.45.84.94,1.64,1.92,2.51,2.83s1.88,1.68,2.83,2.5c.48.4.94.83,1.43,1.22l1.56,1.05,3.1,2.1c2.18,1.2,4.43,2.28,6.66,3.32-2-1.49-4.1-2.75-6.05-4.23l-2.84-2.31L277,128.57c-.44-.42-.85-.87-1.28-1.3-.84-.87-1.69-1.73-2.56-2.57s-1.52-1.87-2.28-2.8l-1.13-1.41-1-1.51a31,31,0,0,1-1.85-3.08,42.09,42.09,0,0,1-4.62-13.58,43.79,43.79,0,0,1-.6-7.25A43.1,43.1,0,0,1,262.23,87.74Z" style="fill:#263238"></path><path d="M295.52,154.88s15.46-12,21.25-6.07S307.65,174.5,298.54,175s-9.78-7.88-9.78-7.88Z" style="fill:#ffc4c0"></path><path d="M312.35,154.36a.12.12,0,0,1,0,.23c-6.45.56-11.1,4.94-14.91,9.79,2.36-1.59,5-2,7.26.86.11.15-.1.34-.25.26-2.2-1.23-4-1.34-6.18.05a25.82,25.82,0,0,0-4.1,3.72c-.42.43-1.27-.13-.89-.66l.09-.12C295.45,161.15,304.28,152.68,312.35,154.36Z" style="fill:#263238"></path><path d="M160.76,387.3C174.55,371.2,185,323.6,180,239.74c-.7-11.61-82.61,2.26-82.5,14.69.13,15.66,4,76.39,4.89,80.8C109.55,372.38,151.41,398.23,160.76,387.3Z" style="fill:#ffc4c0"></path><polygon points="76.92 226.83 74.05 221.45 209.76 151.57 210.4 152.77 76.92 226.83" style="fill:#163020"></polygon><polygon points="76.92 226.83 74.05 221.45 209.76 151.57 210.4 152.77 76.92 226.83" style="opacity:0.1"></polygon><polygon points="76.92 226.83 92.6 218.14 89.98 213.25 74.05 221.45 76.92 226.83" style="opacity:0.30000000000000004"></polygon><path d="M224.29,158.54c-2.12.45-11.59-.37-19.21-1.07s-19.06,1.59-20.86,1.85-4.25-4.44-3.59-5,14.61-3.38,19.21-3.08,23.37.77,24.36,1.77S225.34,158.32,224.29,158.54Z" style="fill:#163020"></path><path d="M224.29,158.54c-2.12.45-11.59-.37-19.21-1.07s-19.06,1.59-20.86,1.85-4.25-4.44-3.59-5,14.61-3.38,19.21-3.08,23.37.77,24.36,1.77S225.34,158.32,224.29,158.54Z" style="opacity:0.7000000000000001"></path><polygon points="67.16 206.88 65.02 201.16 208.73 149.7 209.21 150.98 67.16 206.88" style="fill:#163020"></polygon><polygon points="67.16 206.88 65.02 201.16 208.73 149.7 209.21 150.98 67.16 206.88" style="opacity:0.1"></polygon><polygon points="67.16 206.88 83.84 200.31 81.89 195.12 65.02 201.16 67.16 206.88" style="opacity:0.30000000000000004"></polygon><path d="M99.84,281.33s-1.25-4.82-7.08-31.08c-4-18.15-2.23-64.95,41.15-94.09,16.63-11.17,31.72-4.38,16.51,10.29-10.71,10.32-19,16.56-21.57,20.91,0,0,22.68-2.16,31.3,7.83,3.86,4.47,14.1,16.9,20.69,27.72a52.17,52.17,0,0,1-4.84,4.33,27.74,27.74,0,0,1,1.83,29.51Z" style="fill:#ffc4c0"></path><path d="M91.68,232.31c4.67-8.56,14.87-26.53,28.32-38.33,14.94-13.1,47.26-34.32,56.82-23.19,7,8.16-4.61,17.35-4.61,17.35s15.2-6,19.92,2.8c4.31,8-5.11,14.55-5.11,14.55s9.84-2,12.5,6.46c3.21,10.2-18,12.77-23.64,25.91C174.6,240.81,91.68,232.31,91.68,232.31Z" style="fill:#ffc4c0"></path><path d="M131.22,212.08c5.7-7.33,22.94-20.64,40.6-24.09.4-.07.67.19.32.33a195.49,195.49,0,0,0-40.8,23.9C131.25,212.29,131.15,212.16,131.22,212.08Z" style="fill:#263238"></path><path d="M144.88,226.78c5.58-5.81,24-18.75,42-21.62.4-.07.66.21.31.35C167.34,213,151.7,222.28,145,226.93,144.91,227,144.81,226.86,144.88,226.78Z" style="fill:#263238"></path><path d="M181.29,270.26a207,207,0,0,1,1.16,31.68c-.51,10.54-1.09,21.3-4.41,31.41,1.65-20.66,1.12-42.47,3.25-63.09Z" style="fill:#263238"></path></g><g id="freepik--food-2--inject-67"><path d="M349.79,353.21h0c-.88.3-29.65,10.17-99.77,10.17s-98.89-9.87-99.77-10.17h0s21-8.89,99.79-8.89S349.79,353.21,349.79,353.21Z" style="fill:#263238"></path><path d="M349.79,353.21h0c-.88.3-29.65,10.17-99.77,10.17s-98.89-9.87-99.77-10.17h0s21-8.89,99.79-8.89S349.79,353.21,349.79,353.21Z" style="opacity:0.2"></path><rect x="208.36" y="429.4" width="83.29" height="11.43" style="fill:#263238"></rect><polygon points="291.64 433.31 208.36 434.65 208.36 429.4 291.64 429.4 291.64 433.31" style="opacity:0.2"></polygon><path d="M276.46,347c10.42-2,21-3.7,31.58-2.6,6.31,1.44,11.76,5.18,17.63,7.75l-.05.25a25.67,25.67,0,0,1-6.25-1.37c-3.92-1.23-7.93-2.95-11.83-4.15-6-1.35-12.4-.84-18.53-.64-4.17.19-8.36.45-12.51,1l0-.26Z" style="fill:#163020"></path><path d="M276.46,347c10.42-2,21-3.7,31.58-2.6,6.31,1.44,11.76,5.18,17.63,7.75l-.05.25a25.67,25.67,0,0,1-6.25-1.37c-3.92-1.23-7.93-2.95-11.83-4.15-6-1.35-12.4-.84-18.53-.64-4.17.19-8.36.45-12.51,1l0-.26Z" style="fill:#fff;opacity:0.7000000000000001"></path><path d="M319,347.54c-7,2.8-14.13,5.37-21.56,5.13-4.5-.92-8.62-4.19-12.92-6.28v-.25A13.36,13.36,0,0,1,289,347c2.83.91,5.75,2.3,8.57,3.17,4.25.86,8.64-.16,12.85-.85a68.92,68.92,0,0,0,8.55-2l0,.25Z" style="fill:#163020"></path><path d="M319,347.54c-7,2.8-14.13,5.37-21.56,5.13-4.5-.92-8.62-4.19-12.92-6.28v-.25A13.36,13.36,0,0,1,289,347c2.83.91,5.75,2.3,8.57,3.17,4.25.86,8.64-.16,12.85-.85a68.92,68.92,0,0,0,8.55-2l0,.25Z" style="fill:#fff;opacity:0.7000000000000001"></path><path d="M256.9,344.6c6.68-3.65,13.49-7.1,20.9-7.79,4.56.35,9,3.09,13.48,4.63l0,.25a13,13,0,0,1-4.51-.3c-2.91-.55-6-1.56-8.84-2.08-4.32-.32-8.58,1.24-12.69,2.45a70.76,70.76,0,0,0-8.29,3.08l-.07-.24Z" style="fill:#163020"></path><path d="M256.9,344.6c6.68-3.65,13.49-7.1,20.9-7.79,4.56.35,9,3.09,13.48,4.63l0,.25a13,13,0,0,1-4.51-.3c-2.91-.55-6-1.56-8.84-2.08-4.32-.32-8.58,1.24-12.69,2.45a70.76,70.76,0,0,0-8.29,3.08l-.07-.24Z" style="fill:#fff;opacity:0.7000000000000001"></path><path d="M292.43,351.85c2.89,1.68,6.28.67,9.33.07,9.29-1.79,20.2-5.72,28.94.07l-.1.24c-6.36-1.29-12.62-.48-19-.27-3.21.23-6.38.78-9.61,1.23s-6.85,1-9.65-1.12l.13-.22Z" style="fill:#163020"></path><path d="M292.43,351.85c2.89,1.68,6.28.67,9.33.07,9.29-1.79,20.2-5.72,28.94.07l-.1.24c-6.36-1.29-12.62-.48-19-.27-3.21.23-6.38.78-9.61,1.23s-6.85,1-9.65-1.12l.13-.22Z" style="fill:#fff;opacity:0.8"></path><path d="M294.39,339.46a170.91,170.91,0,0,0-20.52,4.48c-1.35.51-3.11,1-4.09,2.07a7.11,7.11,0,0,0,2.65,1.44c3.16,1.15,6.68,1.78,10.05,3.06l0,.26a38.13,38.13,0,0,1-10.65-.85c-1.49-.47-3.21-.95-4.09-2.75a3,3,0,0,1,1.72-3.86c4.6-2,9.63-2.45,14.45-3.17,3.5-.39,7-.69,10.5-.93l0,.25Z" style="fill:#163020"></path><path d="M294.39,339.46a170.91,170.91,0,0,0-20.52,4.48c-1.35.51-3.11,1-4.09,2.07a7.11,7.11,0,0,0,2.65,1.44c3.16,1.15,6.68,1.78,10.05,3.06l0,.26a38.13,38.13,0,0,1-10.65-.85c-1.49-.47-3.21-.95-4.09-2.75a3,3,0,0,1,1.72-3.86c4.6-2,9.63-2.45,14.45-3.17,3.5-.39,7-.69,10.5-.93l0,.25Z" style="fill:#fff;opacity:0.7000000000000001"></path><path d="M260.23,338.82c4.22.22,7.35,4.44,11,5.87,1.82.44,4-.06,5.89-.36,5.15-.9,10.13-2.66,15.34-3.35,3.22-.33,6.51,1.14,9.43,2.27,1.94.72,3.82,1.7,5.86,1.87l0,.26c-4.17.84-8.31-1.19-12.33-1.64s-8,.72-11.94,1.26c-4.19.56-8.41,1.91-12.65.91-2.11-1-3.61-2.58-5.27-3.92a11.3,11.3,0,0,0-5.44-2.92l0-.25Z" style="fill:#163020"></path><path d="M260.23,338.82c4.22.22,7.35,4.44,11,5.87,1.82.44,4-.06,5.89-.36,5.15-.9,10.13-2.66,15.34-3.35,3.22-.33,6.51,1.14,9.43,2.27,1.94.72,3.82,1.7,5.86,1.87l0,.26c-4.17.84-8.31-1.19-12.33-1.64s-8,.72-11.94,1.26c-4.19.56-8.41,1.91-12.65.91-2.11-1-3.61-2.58-5.27-3.92a11.3,11.3,0,0,0-5.44-2.92l0-.25Z" style="fill:#fff;opacity:0.8"></path><path d="M323.17,351.23c-3-.77-4.91-5.38-7.45-7.28-1.26-.67-2.87-.47-4.25-.41-3.76.21-7.48,1.31-11.27,1.31-2.34-.09-4.57-2-6.58-3.48-1.33-1-2.6-2.2-4.05-2.63v-.26c3.06-.29,5.86,2.27,8.71,3.24s5.77.32,8.65.31c3.06,0,6.19-.79,9.15.76a23.25,23.25,0,0,1,3.46,4.58c1.06,1.57,2.22,3.05,3.67,3.61l0,.25Z" style="fill:#163020"></path><path d="M323.17,351.23c-3-.77-4.91-5.38-7.45-7.28-1.26-.67-2.87-.47-4.25-.41-3.76.21-7.48,1.31-11.27,1.31-2.34-.09-4.57-2-6.58-3.48-1.33-1-2.6-2.2-4.05-2.63v-.26c3.06-.29,5.86,2.27,8.71,3.24s5.77.32,8.65.31c3.06,0,6.19-.79,9.15.76a23.25,23.25,0,0,1,3.46,4.58c1.06,1.57,2.22,3.05,3.67,3.61l0,.25Z" style="fill:#fff;opacity:0.8"></path><path d="M279.44,333.35a43.35,43.35,0,0,0,6.91,10.29c1.38,1.44,2.86,2.9,4.57,3.12,6.78,1.06,13.94-1.88,20.7.71a18.94,18.94,0,0,1,7.06,6.3l-.16.18c-3.3-2.32-6.64-4.73-10.23-4.78-3.74-.17-7.69-.16-11.64-.22-2.46-.11-5.2,0-7.58-1.14-3.13-1.94-5.17-5.38-7.08-8.6a38.08,38.08,0,0,1-2.77-5.79l.22-.07Z" style="fill:#163020"></path><path d="M279.44,333.35a43.35,43.35,0,0,0,6.91,10.29c1.38,1.44,2.86,2.9,4.57,3.12,6.78,1.06,13.94-1.88,20.7.71a18.94,18.94,0,0,1,7.06,6.3l-.16.18c-3.3-2.32-6.64-4.73-10.23-4.78-3.74-.17-7.69-.16-11.64-.22-2.46-.11-5.2,0-7.58-1.14-3.13-1.94-5.17-5.38-7.08-8.6a38.08,38.08,0,0,1-2.77-5.79l.22-.07Z" style="fill:#fff;opacity:0.8"></path><path d="M313.1,338.26c-2.46,1.07-5.47,4-7.62,5.77-4.1,3.35-8.59,6.88-13.83,7.75a28.17,28.17,0,0,1-12.91-1.25l0-.26c3.88-.27,7.69-.69,11.52-1a17.07,17.07,0,0,0,6.46-1.44c4.07-1.76,8.23-5,12-7.56A16.2,16.2,0,0,1,313,338l.06.25Z" style="fill:#163020"></path><path d="M313.1,338.26c-2.46,1.07-5.47,4-7.62,5.77-4.1,3.35-8.59,6.88-13.83,7.75a28.17,28.17,0,0,1-12.91-1.25l0-.26c3.88-.27,7.69-.69,11.52-1a17.07,17.07,0,0,0,6.46-1.44c4.07-1.76,8.23-5,12-7.56A16.2,16.2,0,0,1,313,338l.06.25Z" style="fill:#fff;opacity:0.7000000000000001"></path><path d="M302.61,350.71c-2.6-2.17-6.1-1.78-9.2-1.74-9.42.11-20.77,2-28.54-5.25l.13-.21c6.09,2.41,12.39,2.73,18.75,3.68,3.2.34,6.41.36,9.67.5s6.9.25,9.35,2.83l-.16.19Z" style="fill:#163020"></path><path d="M302.61,350.71c-2.6-2.17-6.1-1.78-9.2-1.74-9.42.11-20.77,2-28.54-5.25l.13-.21c6.09,2.41,12.39,2.73,18.75,3.68,3.2.34,6.41.36,9.67.5s6.9.25,9.35,2.83l-.16.19Z" style="fill:#fff;opacity:0.8"></path><path d="M172.47,341.24c-4.65.6-8.51,7.85-7.95,11.84s5.28,8.24,9.59,7.87,8.79-5.07,9.63-8.12S180.73,340.17,172.47,341.24Z" style="fill:#455a64"></path><path d="M172.73,342.64c-4,.52-7.3,6.74-6.82,10.17s4.52,7.06,8.22,6.75,7.55-4.35,8.27-7S179.81,341.73,172.73,342.64Z" style="fill:#fff;opacity:0.2"></path><path d="M184.34,336.15c-4.5,1.31-7.18,9.07-6,12.93s6.49,7.32,10.69,6.29,7.91-6.37,8.26-9.52S192.33,333.81,184.34,336.15Z" style="fill:#455a64"></path><path d="M184.81,337.5c-3.86,1.12-6.16,7.78-5.16,11.1s5.56,6.27,9.17,5.39,6.78-5.47,7.09-8.17S191.67,335.49,184.81,337.5Z" style="fill:#fff;opacity:0.2"></path><path d="M192.53,353.22c2.54,3.94,10.74,4.31,14.11,2.09s5.16-8.3,3-12-8.36-5.76-11.48-5.21S188,346.23,192.53,353.22Z" style="fill:#455a64"></path><path d="M193.69,352.39c2.18,3.38,9.22,3.69,12.11,1.78s4.43-7.12,2.56-10.33-7.18-4.94-9.86-4.46S189.81,346.38,193.69,352.39Z" style="fill:#fff;opacity:0.2"></path><path d="M218.65,342.88c1.27-4.51-3.89-10.9-7.79-11.95s-9.64,1.63-11,5.74,1.23,10.08,3.71,12.05S216.41,350.9,218.65,342.88Z" style="fill:#455a64"></path><path d="M217.26,342.57c1.09-3.88-3.34-9.35-6.69-10.26s-8.27,1.4-9.43,4.93,1.06,8.65,3.18,10.34S215.33,349.45,217.26,342.57Z" style="fill:#fff;opacity:0.2"></path><path d="M191.65,356.6c.55-4.66-5.54-10.16-9.55-10.6s-9.27,3.11-10,7.38,2.78,9.77,5.53,11.33S190.67,364.87,191.65,356.6Z" style="fill:#455a64"></path><path d="M190.22,356.51c.47-4-4.75-8.72-8.19-9.1s-8,2.67-8.56,6.33,2.38,8.38,4.75,9.72S189.38,363.6,190.22,356.51Z" style="fill:#fff;opacity:0.2"></path><path d="M231.42,346.64c.55-4.65-5.54-10.16-9.55-10.6s-9.27,3.11-10,7.38,2.78,9.77,5.53,11.33S230.44,354.91,231.42,346.64Z" style="fill:#455a64"></path><path d="M230,346.55c.47-4-4.75-8.72-8.19-9.1s-8,2.67-8.56,6.33,2.38,8.39,4.75,9.73S229.15,353.64,230,346.55Z" style="fill:#fff;opacity:0.2"></path><path d="M192.29,345.82c-4.68,0-9.48,6.63-9.47,10.66s4.11,8.87,8.43,9.09,9.4-3.84,10.65-6.75S200.62,345.87,192.29,345.82Z" style="fill:#455a64"></path><path d="M192.36,347.24c-4,0-8.14,5.69-8.13,9.16s3.53,7.61,7.24,7.79,8.06-3.29,9.13-5.79S199.5,347.29,192.36,347.24Z" style="fill:#fff;opacity:0.2"></path><path d="M207.84,343.39c-4.65.6-8.51,7.85-8,11.84s5.27,8.23,9.59,7.87,8.79-5.07,9.63-8.13S216.1,342.32,207.84,343.39Z" style="fill:#455a64"></path><path d="M208.09,344.79c-4,.52-7.29,6.74-6.82,10.17s4.53,7.06,8.23,6.75,7.55-4.36,8.27-7S215.18,343.87,208.09,344.79Z" style="fill:#fff;opacity:0.2"></path><path d="M242.72,339.82c-11.63.11-42,4.87-40.4,9.9s20.59,4.56,25.94,5.82,17.6,3.77,24.68,2.51,24.68-5.66,33-5.66,11.83-.47,11.79-3.29C297.68,344.71,275.73,339.5,242.72,339.82Z" style="fill:#fff"></path><path d="M242.72,339.82a149.26,149.26,0,0,0-24.65,3.08c-3.26.74-22.48,4.56-12.92,9,6.83,2.47,14.28,2.05,21.43,3,6.08,1.12,12.19,2.59,18.37,2.95a37.2,37.2,0,0,0,12.2-1.09c8.11-1.66,16.21-3.54,24.5-4.47,4.12-.5,8.32,0,12.39-.6a5.64,5.64,0,0,0,2.72-1c1.8-1.72-.39-3.37-2-4.13-4.65-2.24-9.8-3.21-14.86-4.14a217.93,217.93,0,0,0-37.16-2.56Zm0,0a232.65,232.65,0,0,1,37.21,2.25c5.1.86,10.32,1.76,15.06,4,2,.9,4.39,2.92,2.2,5.11a6.44,6.44,0,0,1-3,1.18c-4.18.7-8.35.24-12.42.77-8.2,1-16.28,2.9-24.39,4.6a38.16,38.16,0,0,1-12.47,1c-6.24-.41-12.32-1.86-18.41-3.1-7.15-1-14.65-.7-21.5-3.3-15.06-7.74,33.95-12.95,37.75-12.5Z" style="fill:#263238"></path><path d="M249.29,334.38c-12.21,0-19.33,5-19.33,7.23s9.63,4.57,19.33,4.57,18.63-2.21,18.63-4.88S261.22,334.38,249.29,334.38Z" style="fill:#163020"></path><path d="M267.92,341.3c0,2.67-8.93,4.89-18.63,4.89S230,343.81,230,341.61a1.41,1.41,0,0,1,.08-.43c.91,1.85,9,3.73,17.17,3.73,8.65,0,16.62-2,16.62-4.36s-5.55-5.9-15.48-6.15c.32,0,.63,0,.94,0C261.22,334.38,267.92,338.62,267.92,341.3Z" style="opacity:0.1"></path><g style="opacity:0.4"><path d="M233.73,339.14c-.3-.75,6.29-3.36,9.51-3.36,1.18,0-1.44,3.09-2.88,3.54S234.16,340.19,233.73,339.14Z" style="fill:#fff"></path><path d="M244.66,335.49c-.08-.6,4.79-.62,5-.2s-1.63,1.2-2.48,1.17S244.74,336.18,244.66,335.49Z" style="fill:#fff"></path></g><path d="M330.42,343.87l1.63-5.23s-18,9.16-34.92,13.58-35.71,1.7-35.71,1.7l1.66,3.83s22.06.68,34.06-2.35C311.81,351.71,330.42,343.87,330.42,343.87Z" style="fill:#163020"></path><path d="M330.42,343.87l1.63-5.23s-18,9.16-34.92,13.58-35.71,1.7-35.71,1.7l1.66,3.83s22.06.68,34.06-2.35C311.81,351.71,330.42,343.87,330.42,343.87Z" style="opacity:0.2"></path><path d="M275.78,357.91l-3.31-4.22s19.93,1.49,37.16-1,33.84-12.34,33.84-12.34l-.24,4.21s-20.3,9.23-32.51,11.1C295.79,358,275.78,357.91,275.78,357.91Z" style="fill:#163020"></path><path d="M275.78,357.91l-3.31-4.22s19.93,1.49,37.16-1,33.84-12.34,33.84-12.34l-.24,4.21s-20.3,9.23-32.51,11.1C295.79,358,275.78,357.91,275.78,357.91Z" style="opacity:0.2"></path><path d="M257.75,355.68l-2.16-5s18.88,7,36.11,9.44,35.68-2.46,35.68-2.46l-1.26,4s-21.85,3.24-34.09,1.63C277.06,361.31,257.75,355.68,257.75,355.68Z" style="fill:#163020"></path><path d="M257.75,355.68l-2.16-5s18.88,7,36.11,9.44,35.68-2.46,35.68-2.46l-1.26,4s-21.85,3.24-34.09,1.63C277.06,361.31,257.75,355.68,257.75,355.68Z" style="opacity:0.2"></path><path d="M270,352.73l-2.26-4.92s19,6.31,36.31,8.1,35.65-3.77,35.65-3.77l-1.18,4s-21.81,4-34.08,2.88C289.38,357.65,270,352.73,270,352.73Z" style="fill:#163020"></path><path d="M270,352.73l-2.26-4.92s19,6.31,36.31,8.1,35.65-3.77,35.65-3.77l-1.18,4s-21.81,4-34.08,2.88C289.38,357.65,270,352.73,270,352.73Z" style="opacity:0.2"></path><path d="M275.72,361.84,272,358.07s19.95-1.08,36.78-5.74,32.2-16.6,32.2-16.6l.24,4.22s-19.12,11.76-31,15.18C295.6,359.32,275.72,361.84,275.72,361.84Z" style="fill:#163020"></path><path d="M275.72,361.84,272,358.07s19.95-1.08,36.78-5.74,32.2-16.6,32.2-16.6l.24,4.22s-19.12,11.76-31,15.18C295.6,359.32,275.72,361.84,275.72,361.84Z" style="opacity:0.30000000000000004"></path><path d="M281,357.9l-3.14-4.38s19.85,2.42,37.17.75,34.3-10.76,34.3-10.76l-.4,4.2s-20.66,8.27-32.94,9.57C300.94,358.87,281,357.9,281,357.9Z" style="fill:#163020"></path><path d="M281,357.9l-3.14-4.38s19.85,2.42,37.17.75,34.3-10.76,34.3-10.76l-.4,4.2s-20.66,8.27-32.94,9.57C300.94,358.87,281,357.9,281,357.9Z" style="opacity:0.30000000000000004"></path><path d="M325.64,355.68l2.2-5s-18.93,6.83-36.18,9.11S256,357,256,357l1.23,4s21.82,3.43,34.08,1.93C306.29,361.14,325.64,355.68,325.64,355.68Z" style="fill:#163020"></path><path d="M325.64,355.68l2.2-5s-18.93,6.83-36.18,9.11S256,357,256,357l1.23,4s21.82,3.43,34.08,1.93C306.29,361.14,325.64,355.68,325.64,355.68Z" style="opacity:0.30000000000000004"></path><path d="M251.28,365.5,248,361.3s19.93,1.36,37.15-1.22,33.76-12.56,33.76-12.56l-.21,4.22S298.4,361.1,286.2,363C271.29,365.42,251.28,365.5,251.28,365.5Z" style="fill:#163020"></path><path d="M251.28,365.5,248,361.3s19.93,1.36,37.15-1.22,33.76-12.56,33.76-12.56l-.21,4.22S298.4,361.1,286.2,363C271.29,365.42,251.28,365.5,251.28,365.5Z" style="opacity:0.2"></path><path d="M218,357.43c-.45-.37.82-4.76,1.91-5s16.7,4.61,19.32,5.25,20.93-.1,21.75.58,1.09,4.71.24,5.23-19.35.83-22.91.25S219.51,358.72,218,357.43Z" style="fill:#163020"></path><path d="M218,357.43c-.45-.37.82-4.76,1.91-5s16.7,4.61,19.32,5.25,20.93-.1,21.75.58,1.09,4.71.24,5.23-19.35.83-22.91.25S219.51,358.72,218,357.43Z" style="opacity:0.7000000000000001"></path><path d="M164.8,352.71c.36-1,2.1-5,3.64-5.63s13,9.75,20.15,11.59,23.39,1.15,27.07,1.8,6.39,4.91,5.74,5.45-19.6.87-25.88.44-18.31-5.74-20.47-6.93S164.29,354.13,164.8,352.71Z" style="fill:#163020"></path><path d="M164.8,352.71c.36-1,2.1-5,3.64-5.63s13,9.75,20.15,11.59,23.39,1.15,27.07,1.8,6.39,4.91,5.74,5.45-19.6.87-25.88.44-18.31-5.74-20.47-6.93S164.29,354.13,164.8,352.71Z" style="opacity:0.8"></path><path d="M203.24,364.61c-.19-1.07-.66-5.32.26-6.45s14.42,3.62,20.76,2.48,18.54-8.11,21.67-9,7.14,1.89,6.89,2.63-14.71,8.42-19.75,10.49-16.69,2-18.9,1.81S203.49,366.07,203.24,364.61Z" style="fill:#163020"></path><path d="M203.24,364.61c-.19-1.07-.66-5.32.26-6.45s14.42,3.62,20.76,2.48,18.54-8.11,21.67-9,7.14,1.89,6.89,2.63-14.71,8.42-19.75,10.49-16.69,2-18.9,1.81S203.49,366.07,203.24,364.61Z" style="opacity:0.8"></path><path d="M200.14,352c2.47-.05,13.15,2.5,21.73,4.59s21.92,1.92,24,2,4.25,5.19,3.42,5.67-17.09.68-22.29-.47-26.51-5.05-27.51-6.22S198.92,352,200.14,352Z" style="fill:#163020"></path><path d="M200.14,352c2.47-.05,13.15,2.5,21.73,4.59s21.92,1.92,24,2,4.25,5.19,3.42,5.67-17.09.68-22.29-.47-26.51-5.05-27.51-6.22S198.92,352,200.14,352Z" style="opacity:0.8"></path><path d="M172.56,357.72c2.7-1,18.1-2.07,24.35-3.15s22.9-5.77,23.5-5.7,6.58,2.59,5.75,3.54-17.93,6.36-27,7.58-28.06,2.91-29.14,2.16S171.12,358.27,172.56,357.72Z" style="fill:#163020"></path><path d="M172.56,357.72c2.7-1,18.1-2.07,24.35-3.15s22.9-5.77,23.5-5.7,6.58,2.59,5.75,3.54-17.93,6.36-27,7.58-28.06,2.91-29.14,2.16S171.12,358.27,172.56,357.72Z" style="opacity:0.7000000000000001"></path><path d="M198.24,363.43c-.52-.27-.2-4.83.81-5.27s17.3,1,20,1.08,20.44-4.49,21.38-4,2.06,4.37,1.34,5.07-18.75,4.87-22.35,5S200,364.36,198.24,363.43Z" style="fill:#163020"></path><path d="M198.24,363.43c-.52-.27-.2-4.83.81-5.27s17.3,1,20,1.08,20.44-4.49,21.38-4,2.06,4.37,1.34,5.07-18.75,4.87-22.35,5S200,364.36,198.24,363.43Z" style="opacity:0.7000000000000001"></path><path d="M176.7,344.09c-.16-.57,3.36-3.48,4.37-3s11.23,13.2,13.05,15.2,17.36,11.68,17.66,12.69S210,373.45,209,373.4,192.57,363.21,190,360.73,177.26,346,176.7,344.09Z" style="fill:#163020"></path><path d="M176.7,344.09c-.16-.57,3.36-3.48,4.37-3s11.23,13.2,13.05,15.2,17.36,11.68,17.66,12.69S210,373.45,209,373.4,192.57,363.21,190,360.73,177.26,346,176.7,344.09Z" style="opacity:0.7000000000000001"></path><path d="M206.37,355.35c-2,.76-11.51,1.41-19.14,1.89s-18.59,4.49-20.33,5-4.88-3.74-4.33-4.44,13.92-5.59,18.52-6,23.21-2.83,24.34-2S207.38,355,206.37,355.35Z" style="fill:#163020"></path><path d="M206.37,355.35c-2,.76-11.51,1.41-19.14,1.89s-18.59,4.49-20.33,5-4.88-3.74-4.33-4.44,13.92-5.59,18.52-6,23.21-2.83,24.34-2S207.38,355,206.37,355.35Z" style="opacity:0.8"></path><path d="M349.79,353.21s-8.06,52.45-33.14,66.53c-22.1,12.39-45.95,13.67-66.65,13.67s-44.55-1.28-66.65-13.67c-25.08-14.08-33.14-66.53-33.14-66.53s28.55,10.18,99.79,10.18S349.79,353.21,349.79,353.21Z" style="fill:#263238"></path><path d="M349.79,353.21s-8.06,52.45-33.14,66.53c-22.1,12.39-45.95,13.67-66.65,13.67s-44.55-1.28-66.65-13.67c-25.08-14.08-33.14-66.53-33.14-66.53h0c.88.3,29.65,10.17,99.77,10.17s98.89-9.87,99.77-10.17Z" style="fill:#263238"></path><path d="M347,366.5c-.24,1-.52,2.05-.81,3.12-4.07,1-10.09,2.23-18.19,3.5-15.3,2.39-41.24,5.23-78,5.23s-62.68-2.84-78-5.23c-8.1-1.27-14.12-2.52-18.19-3.5-.29-1.07-.57-2.12-.81-3.12,4,1,10.48,2.42,19.56,3.83,15.18,2.37,40.94,5.18,77.42,5.18s62.24-2.81,77.42-5.18C336.5,368.92,343,367.5,347,366.5Z" style="fill:#163020"></path><path d="M344.39,375.8c-.32,1-.65,2.08-1,3.14-3.87.85-9,1.85-15.4,2.85-15.3,2.39-41.24,5.24-78,5.24s-62.68-2.85-78-5.24c-6.42-1-11.53-2-15.4-2.85-.36-1.06-.69-2.11-1-3.14,4,.92,9.63,2.08,17,3.21,15.18,2.37,40.94,5.18,77.42,5.18s62.24-2.81,77.42-5.18C334.76,377.88,340.39,376.72,344.39,375.8Z" style="fill:#163020"></path></g></svg>
