<svg xmlns="http://www.w3.org/2000/svg" viewBox="0 0 750 500"><g id="freepik--background-complete--inject-49"><g><g id="freepik--xsrjP0--inject-49"><g><path d="M273.41,185.84c-2.28-1.43-4.26-3.51-7.32-3.22-1.17,.12-.91-.85-.92-1.49-.02-11.49-.01-22.96-.02-34.44,0-.84,.05-1.52,.96-1.98,8.77-4.42,12.57-13.12,17.94-20.56,5.74-7.93,7.72-16.53,6.36-26.05-.37-2.58,.84-3.74,3.17-4.27,2.8-.64,5.59,.14,6.55,2.06,2.36,4.78,4.39,9.74,5.01,15.05,.51,4.35-1.05,8.59-1.6,12.9-.4,3.15-1.13,6.27-1.73,9.46,.77,.56,1.66,.27,2.49,.28,9.7,.02,19.4,.01,29.1,.01,4.09,0,6.09,1.17,6.66,3.89,.7,3.38-1.09,6.82-4.22,8.41-.72,.37-2.04,.04-2.13,1.17-.09,1.16,1.26,1.04,1.93,1.51,3.51,2.41,2.86,7.38-1.2,10.25-.98,.69-2.87,.37-2.92,1.8-.02,1.14,1.75,1.13,2.55,1.93,2.83,2.8,1.43,8.03-2.81,10.14-.54,.27-1.22,.32-1.7,.66-.48,.32-.95,.69-.02,1.35,4.2,3,4.11,7.18-.12,10.22-.42,.3-.84,.61-1.26,.91-1.54,1.13-3.35,1.11-5.11,1.12-15.21,.03-30.42,.02-45.63,.01-1.43,0-2.87-.04-4-1.11Z" style="fill:#ebebeb; fill-rule:evenodd;"></path><path d="M230.16,165.6c0-7.29,.03-14.59-.03-21.88-.01-1.49,.14-2.21,1.96-2.19,8.9,.11,17.79,.11,26.69,0,1.75-.02,2.02,.58,2.01,2.13-.05,14.68-.06,29.36,0,44.04,.01,1.87-.5,2.4-2.37,2.36-8.63-.1-17.26-.12-25.88,.02-2.15,.03-2.44-.72-2.42-2.6,.11-7.29,.04-14.59,.04-21.89Z" style="fill:#ebebeb; fill-rule:evenodd;"></path></g></g><g id="freepik--xsrjP0-2--inject-49"><g><path d="M109.73,100.28c1.38-.87,2.59-2.13,4.44-1.96,.71,.07,.55-.52,.56-.9,0-6.98,0-13.94,.01-20.91,0-.51-.03-.92-.58-1.2-5.32-2.68-7.63-7.97-10.9-12.48-3.49-4.82-4.68-10.04-3.86-15.82,.22-1.57-.51-2.27-1.92-2.59-1.7-.39-3.4,.08-3.98,1.25-1.43,2.9-2.67,5.91-3.04,9.14-.31,2.64,.64,5.22,.97,7.83,.24,1.91,.69,3.81,1.05,5.74-.47,.34-1.01,.16-1.51,.17-5.89,0-11.78,0-17.67,0-2.48,0-3.7,.71-4.04,2.36-.42,2.05,.66,4.14,2.56,5.11,.44,.22,1.24,.02,1.29,.71,.05,.7-.77,.63-1.17,.91-2.13,1.46-1.74,4.48,.73,6.22,.59,.42,1.74,.22,1.77,1.09,.01,.69-1.06,.69-1.55,1.17-1.72,1.7-.87,4.88,1.71,6.16,.33,.16,.74,.19,1.03,.4,.29,.2,.58,.42,.01,.82-2.55,1.82-2.5,4.36,.07,6.21,.25,.18,.51,.37,.77,.55,.93,.68,2.04,.67,3.1,.68,9.24,.02,18.47,.01,27.71,0,.87,0,1.74-.03,2.43-.68Z" style="fill:#ebebeb; fill-rule:evenodd;"></path><path d="M135.99,87.98c0-4.43-.02-8.86,.02-13.29,0-.9-.09-1.34-1.19-1.33-5.41,.07-10.8,.06-16.2,0-1.06-.01-1.22,.35-1.22,1.3,.03,8.91,.04,17.83,0,26.74,0,1.13,.3,1.45,1.44,1.44,5.24-.06,10.48-.07,15.72,.01,1.3,.02,1.48-.44,1.47-1.58-.07-4.43-.03-8.86-.03-13.29Z" style="fill:#ebebeb; fill-rule:evenodd;"></path></g></g><g id="freepik--xsrjP0-3--inject-49"><g><path d="M640.27,134.99c-1.38,.87-2.59,2.13-4.44,1.96-.71-.07-.55,.52-.56,.9,0,6.98,0,13.94-.01,20.91,0,.51,.03,.92,.58,1.2,5.32,2.69,7.63,7.97,10.9,12.48,3.49,4.82,4.68,10.04,3.86,15.82-.22,1.57,.51,2.27,1.92,2.59,1.7,.39,3.4-.08,3.98-1.25,1.43-2.9,2.67-5.91,3.04-9.14,.31-2.64-.64-5.22-.97-7.83-.24-1.91-.69-3.81-1.05-5.74,.47-.34,1.01-.16,1.51-.17,5.89,0,11.78,0,17.67,0,2.48,0,3.7-.71,4.04-2.36,.42-2.05-.66-4.14-2.56-5.11-.44-.22-1.24-.02-1.29-.71-.05-.7,.77-.63,1.17-.91,2.13-1.46,1.74-4.48-.73-6.22-.59-.42-1.74-.22-1.77-1.09-.01-.69,1.06-.69,1.55-1.17,1.72-1.7,.87-4.88-1.71-6.16-.33-.16-.74-.19-1.03-.4-.29-.2-.58-.42-.01-.82,2.55-1.82,2.5-4.36-.07-6.21-.25-.18-.51-.37-.77-.55-.93-.68-2.04-.67-3.1-.68-9.24-.02-18.47-.01-27.71,0-.87,0-1.74,.03-2.43,.68Z" style="fill:#ebebeb; fill-rule:evenodd;"></path><path d="M614.01,147.28c0,4.43,.02,8.86-.02,13.29,0,.9,.09,1.34,1.19,1.33,5.41-.07,10.8-.06,16.2,0,1.06,.01,1.22-.35,1.22-1.3-.03-8.91-.04-17.83,0-26.74,0-1.13-.3-1.45-1.44-1.44-5.24,.06-10.48,.07-15.72-.01-1.3-.02-1.48,.44-1.47,1.58,.07,4.43,.03,8.86,.03,13.29Z" style="fill:#ebebeb; fill-rule:evenodd;"></path></g></g><g id="freepik--xsrjP0-4--inject-49"><g><path d="M451.08,57.68c2.28,1.43,4.26,3.51,7.32,3.22,1.17-.12,.91,.85,.92,1.49,.02,11.49,.01,22.96,.02,34.44,0,.84-.05,1.52-.96,1.98-8.77,4.42-12.57,13.12-17.94,20.56-5.74,7.93-7.72,16.53-6.36,26.05,.37,2.58-.84,3.74-3.17,4.27-2.8,.64-5.59-.14-6.55-2.06-2.36-4.78-4.39-9.74-5.01-15.05-.51-4.35,1.05-8.59,1.6-12.9,.4-3.15,1.13-6.27,1.73-9.46-.77-.56-1.66-.27-2.49-.28-9.7-.02-19.4-.01-29.1-.01-4.09,0-6.09-1.17-6.66-3.89-.7-3.38,1.09-6.82,4.22-8.41,.72-.37,2.04-.04,2.13-1.17,.09-1.16-1.26-1.04-1.93-1.51-3.51-2.41-2.86-7.38,1.2-10.25,.98-.69,2.87-.37,2.92-1.8,.02-1.14-1.75-1.13-2.55-1.93-2.83-2.8-1.43-8.03,2.81-10.14,.54-.27,1.22-.32,1.7-.66,.48-.32,.95-.69,.02-1.35-4.2-3-4.11-7.18,.12-10.22,.42-.3,.84-.61,1.26-.91,1.54-1.13,3.35-1.11,5.11-1.12,15.21-.03,30.42-.02,45.63-.01,1.43,0,2.87,.04,4,1.11Z" style="fill:#ebebeb; fill-rule:evenodd;"></path><path d="M494.32,77.93c0,7.29-.03,14.59,.03,21.88,.01,1.49-.14,2.21-1.96,2.19-8.9-.11-17.79-.11-26.69,0-1.75,.02-2.02-.58-2.01-2.13,.05-14.68,.06-29.36,0-44.04-.01-1.87,.5-2.4,2.37-2.36,8.63,.1,17.26,.12,25.88-.02,2.15-.03,2.44,.72,2.42,2.6-.11,7.29-.04,14.59-.04,21.89Z" style="fill:#ebebeb; fill-rule:evenodd;"></path></g></g></g></g><g id="freepik--Healthy_food--inject-49"><g><g><path d="M215.02,175.25c-23.22,18.3-32.58,101.87-13.91,128.8,18.67,26.93,64.77,47.74,94.47,42.8,33.13-5.51,65.63-47.25,60.39-77.24-5.24-29.99-51.42-36.55-60.47-50.02-9.11-13.56-17.16-39.77-27.38-49.24-10.21-9.48-38.48-6.63-53.1,4.9Z" style="fill:#FFC727;"></path><path d="M215.02,175.25c-23.22,18.3-32.58,101.87-13.91,128.8,18.67,26.93,64.77,47.74,94.47,42.8,33.13-5.51,65.63-47.25,60.39-77.24-5.24-29.99-51.42-36.55-60.47-50.02-9.11-13.56-17.16-39.77-27.38-49.24-10.21-9.48-38.48-6.63-53.1,4.9Z" style="fill:#fff; opacity:.6;"></path><path d="M220.83,181.13c-19.99,15.76-28.34,93.49-12.26,116.68,16.07,23.19,58.23,45.76,83.8,41.51,28.53-4.74,58.26-40.87,53.75-66.7-4.51-25.82-48.48-32.97-56.27-44.57-7.85-11.68-16.98-40.05-25.77-48.21-8.79-8.16-30.66-8.64-43.25,1.28Z" style="fill:#d8726a;"></path><g><path d="M242.28,201.05c8.37,.05,12.03,7.32,12,12.52-.03,5.21-4,12.2-12.15,12.15-8.15-.05-12.18-6.41-12.15-12.41,.03-4.41,4.15-12.31,12.3-12.26Z" style="fill:#FFC727;"></path><path d="M242.28,201.05c8.37,.05,12.03,7.32,12,12.52-.03,5.21-4,12.2-12.15,12.15-8.15-.05-12.18-6.41-12.15-12.41,.03-4.41,4.15-12.31,12.3-12.26Z" style="fill:#fff; opacity:.6;"></path></g><g><g><path d="M246.53,328.94s25.11-28.99,36.7-34.49c11.59-5.49,61.06,.62,61.06,.62l-1.31,3.84s-46.76-6.1-58.05-2.6c-6.87,2.13-35.45,35.41-35.45,35.41l-2.94-2.79Z" style="fill:#FFC727;"></path><path d="M314.46,295.61s5.06,13.15,7.04,16.01c1.98,2.87,7.66,8.04,7.66,8.04l2.44-2.84s-6.68-4.75-8.45-7.04c-1.77-2.29-6.98-14.16-6.98-14.16h-1.71Z" style="fill:#FFC727;"></path><path d="M258.81,317.18s-14.28-1.51-18.43-1.14c-4.15,.37-12.87,3.24-12.87,3.24l1.52,4.21s8.88-4.15,12.31-4.64c3.43-.49,16.47,.1,16.47,.1l1.02-1.78Z" style="fill:#FFC727;"></path></g><g style="opacity:.6;"><path d="M246.53,328.94s25.11-28.99,36.7-34.49c11.59-5.49,61.06,.62,61.06,.62l-1.31,3.84s-46.76-6.1-58.05-2.6c-6.87,2.13-35.45,35.41-35.45,35.41l-2.94-2.79Z" style="fill:#fff;"></path><path d="M314.46,295.61s5.06,13.15,7.04,16.01c1.98,2.87,7.66,8.04,7.66,8.04l2.44-2.84s-6.68-4.75-8.45-7.04c-1.77-2.29-6.98-14.16-6.98-14.16h-1.71Z" style="fill:#fff;"></path><path d="M258.81,317.18s-14.28-1.51-18.43-1.14c-4.15,.37-12.87,3.24-12.87,3.24l1.52,4.21s8.88-4.15,12.31-4.64c3.43-.49,16.47,.1,16.47,.1l1.02-1.78Z" style="fill:#fff;"></path></g></g><path d="M295.58,346.85c-29.7,4.94-75.8-15.87-94.47-42.8-18.39-26.52-9.58-108,12.87-127.94-17.5,25.07-26.73,85.57-13.48,108.17,15.18,25.88,55.83,48.07,83.29,45.61,30.63-2.74,63.19-38.6,60.48-66.35-.98-10.03-7.06-17.63-14.76-23.87,12.45,6.89,24,15.82,26.46,29.93,5.23,29.99-27.26,71.74-60.39,77.25Z" style="opacity:.05;"></path><path d="M246.06,182.38c6.09,7.98-6.03,17.92-11.92,31.43-2.95,6.77-6.97,32.2-16.34,30.83-9.37-1.36-15.86-21.4-4.86-43.65,11-22.25,27.02-26.59,33.12-18.61Z" style="fill:#fff; opacity:.1;"></path></g><g><rect x="126.93" y="134.71" width="74.65" height="194.41" transform="translate(328.51 463.84) rotate(180)" style="fill:#37474f;"></rect><rect x="71.45" y="134.66" width="55.47" height="194.46" transform="translate(198.38 463.79) rotate(180)" style="fill:#455a64;"></rect><polygon points="126.93 134.66 164.25 103.49 201.58 134.71 126.93 134.66" style="fill:#455a64;"></polygon><polygon points="108.78 103.46 164.25 103.46 126.93 134.66 71.45 134.66 108.78 103.46" style="fill:#37474f;"></polygon><g><path d="M126.93,329.12v-124.64c-7.59-1.69-15.64-.28-22.45,4.34l-2.67,1.81-1.49,1.01c-15.04,9.29-28.87,.02-28.87,.02v117.52l55.47-.07Z" style="fill:#fff;"></path><path d="M126.93,329.12c-.17-31.08-.35-93.57-.4-124.64l.31,.39c-4.73-1.04-9.72-.85-14.35,.58-4.8,1.32-8.57,4.45-12.75,7.03-8.66,5.22-19.98,4.87-28.56-.41l.76-.41c-.09-.11,.16,118.7-.49,117.25l55.47,.2h0Zm0,0c-.29-.07-55.48,.39-55.74,.34-.09,0-.16-117.7-.22-117.79v-.87c8.35,5.41,19.68,6.1,28.31,.9,4.15-2.54,8.14-5.77,12.97-7.06,4.87-1.49,10.13-1.63,15.08-.47,.08,.14-.19,62.53-.14,62.74l-.26,62.21h0Z" style="fill:#455a64;"></path></g><path d="M201.58,329.12l-.03-124.64c-10.2-1.69-21.02-.28-30.18,4.34l-3.58,1.81-2,1.01c-20.22,9.29-29.55-3.64-38.81-7.15l.03,124.69,74.58-.05Z" style="fill:#ebebeb;"></path><g><path d="M88.35,180.38v11.55c0,.59-.47,1.08-1.01,1.08s-.99-.49-.99-1.08v-8.24l-2.59,3.91c-.2,.29-.49,.45-.81,.45h-.04c-.32,0-.63-.16-.83-.45l-2.58-3.91v8.24c0,.59-.45,1.08-1.01,1.08s-.99-.49-.99-1.08v-11.55c0-.59,.45-1.08,.99-1.08h.05c.29,0,.61,.16,.79,.45l3.58,5.4,3.58-5.4c.2-.29,.49-.45,.81-.45h.02c.54,.02,1.01,.49,1.01,1.08Z" style="fill:#fff;"></path><path d="M92.84,180.38c0-.61,.43-1.08,.99-1.08s1.01,.47,1.01,1.08v11.55c0,.61-.47,1.08-1.01,1.08s-.99-.47-.99-1.08v-11.55Z" style="fill:#fff;"></path><path d="M98.21,191.93v-11.55c0-.59,.43-1.08,.99-1.08s1.01,.49,1.01,1.08v10.45h4.88c.52,0,.99,.49,.99,1.1s-.47,1.08-.99,1.08h-5.89c-.56,0-.99-.49-.99-1.08Z" style="fill:#fff;"></path><path d="M108.35,191.93v-11.45c0-.57,.43-1.08,.99-1.08s.99,.51,.99,1.08v5.62l5.83-6.36c.4-.43,1.01-.43,1.4,0,.38,.41,.38,1.1,0,1.53l-3.96,4.29,4,5.7c.36,.45,.29,1.13-.14,1.51-.18,.18-.4,.26-.63,.26-.27,0-.54-.14-.74-.39l-3.89-5.54-1.87,2.08v2.78c0,.59-.43,1.08-.99,1.08s-.99-.49-.99-1.08Z" style="fill:#fff;"></path></g><g><rect x="143.87" y="225.7" width="40.83" height="2.66" transform="translate(328.4 454.19) rotate(-179.96)" style="fill:#c7c7c7;"></rect><rect x="143.86" y="236.06" width="40.83" height="2.66" transform="translate(328.37 474.9) rotate(-179.96)" style="fill:#c7c7c7;"></rect><rect x="143.85" y="246.41" width="40.83" height="2.66" transform="translate(328.35 495.61) rotate(-179.96)" style="fill:#c7c7c7;"></rect><rect x="143.84" y="267.13" width="40.83" height="2.66" transform="translate(328.31 537.03) rotate(-179.96)" style="fill:#c7c7c7;"></rect><rect x="143.82" y="289.47" width="40.83" height="2.66" transform="translate(328.26 581.71) rotate(-179.96)" style="fill:#c7c7c7;"></rect><rect x="143.81" y="298.2" width="40.83" height="2.66" transform="translate(328.24 599.17) rotate(-179.96)" style="fill:#c7c7c7;"></rect></g><rect x="108.8" y="93.09" width="55.45" height="10.37" transform="translate(273.05 196.54) rotate(180)" style="fill:#455a64;"></rect><polygon points="164.25 103.46 164.25 134.69 201.58 134.71 164.25 103.46" style="opacity:.1;"></polygon><g><rect x="93.06" y="101.08" width="24.79" height="7.89" transform="translate(210.91 210.06) rotate(180)" style="fill:#FFC727;"></rect><rect x="95.88" y="108.96" width="19.11" height="11.94" transform="translate(210.88 229.86) rotate(180)" style="fill:#455a64;"></rect><rect x="95.88" y="108.96" width="5.52" height="11.94" transform="translate(197.28 229.86) rotate(180)" style="fill:#37474f;"></rect></g></g><g><path d="M76.97,258.19h83.35c2.21,0,4,1.79,4,4v67H61.46v-55.49c0-8.56,6.95-15.51,15.51-15.51Z" style="fill:#FFC727;"></path><path d="M76.97,258.19h83.35c2.21,0,4,1.79,4,4v67H61.46v-55.49c0-8.56,6.95-15.51,15.51-15.51Z" style="fill:#fff; opacity:.6;"></path><path d="M164.31,315.11v14.08H61.48v-43.6c2.69,19.58,43.09,43.88,97.06,30.62,1.98-.47,3.92-.87,5.78-1.11Z" style="fill:#FFC727; opacity:.3;"></path><g><path d="M222.9,325.03c1.35,0,2.49-.32,3.42-.87v5.03h-80.14v-58.77c0-7.41,6.54-13.12,13.88-12.11l66.26,9.08v45.02c-.93-.55-2.07-.88-3.42-.88-8.7,0-8.68,13.5,0,13.5Z" style="fill:#FFC727;"></path><path d="M222.9,325.03c1.35,0,2.49-.32,3.42-.87v5.03h-80.14v-58.77c0-7.41,6.54-13.12,13.88-12.11l66.26,9.08v45.02c-.93-.55-2.07-.88-3.42-.88-8.7,0-8.68,13.5,0,13.5Z" style="fill:#fff; opacity:.4;"></path></g><g style="opacity:.1;"><path d="M160.39,276.36c8.68,0,8.7,13.49,0,13.49s-8.7-13.49,0-13.49Z"></path><path d="M218.93,281.81c3.4,0,3.4,5.28,0,5.28s-3.4-5.28,0-5.28Z"></path><path d="M165.43,313.59c3.4,0,3.4,5.28,0,5.28s-3.4-5.28,0-5.28Z"></path><path d="M190.17,302.16c5.23,0,5.24,8.12,0,8.12s-5.24-8.12,0-8.12Z"></path><path d="M207.71,273.58c5.23,0,5.24,8.12,0,8.12s-5.24-8.12,0-8.12Z"></path></g></g><g><g><path d="M284.49,315s-.03,5.17-3.08,6.64c-3.05,1.47-9.27,2.85-10.97,1.97-1.7-.88-2.15-1.77-2.15-1.77,0,0-5.25-1.67-7.59-5.61-2.34-3.94-.61-10.04,1.56-12.25,2.17-2.21,7.48-6.21,11.53-3.98,0,0,5.18-.95,6.5,3.89,0,0,7.01,2.74,4.19,11.11Z" style="fill:#263238;"></path><path d="M281.33,293.26s-1.79-5.48-.75-8.52c1.04-3.04,5.78-5.38,5.78-5.38,0,0,1.66-3.76,4.5-5.29,2.84-1.53,11.31,1.24,12.46,2.94,1.15,1.7,4.8,5.23,3.66,9.42-1.14,4.19-1.8,9.23-6.15,11.28,0,0-1.73,3-7.38,3.42-5.65,.42-11.04-1.62-12.11-7.88Z" style="fill:#263238;"></path><path d="M288.11,288.94s4.71,2.14,4.81,5.52c.1,3.38-1.18,9.62-2.68,10.82-1.5,1.19-2.49,1.24-2.49,1.24,0,0-3.67,4.11-8.22,4.63-4.55,.52-9.41-3.55-10.55-6.43s-2.61-9.36,1.08-12.15c0,0,1.25-5.12,6.21-4.35,0,0,5.36-5.28,11.85,.72Z" style="fill:#263238;"></path><g><path d="M307.5,294.29s-3.16,9.45-3.28,10.81c-.12,1.36,1.47,5.93,2.44,7.03,.98,1.09,9.35,11.04,9.35,11.04,0,0-5.14,7.55-5.98,8.21-.84,.66-7.61,3.86-7.61,3.86,0,0-13.54-12.9-14.64-14.22-1.09-1.32-13.64-.65-13.64-.65l-1.13-3.66,9.35-1.65s-4.38-2.7-4.98-2.97c-.6-.27-6.39-.45-6.39-.45l1.13-6.03s6.94-1.54,8.14-1.5c1.2,.04,6.94,2.59,6.94,2.59,0,0-3.31-6.52-3.77-7.63-.45-1.11,.42-12.64,.42-12.64l8.52,.52s.67,8.26,1.34,9.9c.67,1.64,2.96,5,2.96,5,0,0,2.48-4.32,3.53-5.35,1.05-1.03,4.12-4.3,4.12-4.3l2.76,1.6" style="fill:#455a64;"></path><path d="M307.5,294.29s-3.16,9.45-3.28,10.81c-.12,1.36,1.47,5.93,2.44,7.03,.98,1.09,9.35,11.04,9.35,11.04,0,0-5.14,7.55-5.98,8.21-.84,.66-7.61,3.86-7.61,3.86,0,0-13.54-12.9-14.64-14.22-1.09-1.32-13.64-.65-13.64-.65l-1.13-3.66,9.35-1.65s-4.38-2.7-4.98-2.97c-.6-.27-6.39-.45-6.39-.45l1.13-6.03s6.94-1.54,8.14-1.5c1.2,.04,6.94,2.59,6.94,2.59,0,0-3.31-6.52-3.77-7.63-.45-1.11,.42-12.64,.42-12.64l8.52,.52s.67,8.26,1.34,9.9c.67,1.64,2.96,5,2.96,5,0,0,2.48-4.32,3.53-5.35,1.05-1.03,4.12-4.3,4.12-4.3l2.76,1.6" style="fill:#FFC727; opacity:.3;"></path></g><g><path d="M321.19,287.04s-.03,5.17-3.08,6.64c-3.05,1.47-9.27,2.85-10.97,1.97-1.7-.88-2.15-1.77-2.15-1.77,0,0-5.25-1.67-7.59-5.61-2.34-3.94-.61-10.04,1.56-12.25,2.17-2.21,7.48-6.21,11.53-3.98,0,0,5.18-.95,6.5,3.89,0,0,7.01,2.74,4.19,11.11Z" style="fill:#37474f;"></path><path d="M320.32,285s-.02,3.68-2.19,4.73c-2.17,1.05-6.6,2.03-7.81,1.41-1.21-.63-1.53-1.26-1.53-1.26,0,0-3.74-1.19-5.4-3.99-1.66-2.8-.43-7.15,1.11-8.73,1.54-1.58,5.33-4.42,8.21-2.83,0,0,3.69-.68,4.63,2.77,0,0,4.99,1.95,2.98,7.91Z" style="fill:#FFC727; opacity:.1;"></path><path d="M318.34,281.97s-.01,2.24-1.33,2.87c-1.32,.64-4.01,1.23-4.75,.85-.73-.38-.93-.77-.93-.77,0,0-2.27-.72-3.28-2.43-1.01-1.7-.26-4.35,.67-5.3,.94-.96,3.24-2.69,4.99-1.72,0,0,2.24-.41,2.82,1.68,0,0,3.04,1.19,1.81,4.81Z" style="fill:#FFC727; opacity:.3;"></path></g><g><path d="M283.82,263.49s6.33-3.69,10.38-3.21c4.05,.48,8.23,5.74,8.23,5.74,0,0,5.11,1.06,7.77,4.18,2.66,3.12,1.47,14.39-.33,16.27-1.8,1.88-5.22,7.36-10.73,7.05-5.51-.3-11.94,.22-15.66-4.64,0,0-4.19-1.35-6.22-8.26-2.03-6.91-.93-14.15,6.56-17.15Z" style="fill:#455a64;"></path><path d="M288.64,264.27s4.72-2.75,7.75-2.39c3.03,.36,6.14,4.29,6.14,4.29,0,0,3.82,.79,5.8,3.12,1.99,2.33,1.1,10.74-.25,12.15-1.35,1.41-3.9,5.5-8.01,5.27-4.11-.23-8.92,.17-11.69-3.46,0,0-3.13-1.01-4.64-6.17s-.69-10.56,4.9-12.81Z" style="fill:#FFC727; opacity:.1;"></path><path d="M293.23,265.02s3.13-1.82,5.13-1.59c2.01,.24,4.07,2.84,4.07,2.84,0,0,2.53,.53,3.84,2.07,1.32,1.54,.73,7.11-.17,8.05-.89,.93-2.58,3.64-5.31,3.49-2.72-.15-5.91,.11-7.74-2.29,0,0-2.07-.67-3.07-4.08-1-3.42-.46-7,3.24-8.48Z" style="fill:#FFC727; opacity:.3;"></path></g><g><path d="M250.13,329.19s-1.79-5.48-.75-8.52c1.04-3.04,5.78-5.38,5.78-5.38,0,0,1.66-3.76,4.5-5.29,2.84-1.53,11.31,1.24,12.46,2.94,1.15,1.7,4.8,5.23,3.66,9.42-1.14,4.19-1.8,9.23-6.15,11.28,0,0-1.73,3-7.38,3.42-5.65,.42-11.04-1.62-12.11-7.88Z" style="fill:#37474f;"></path><path d="M252.65,324.11s-1.23-3.75-.51-5.83c.71-2.08,3.95-3.68,3.95-3.68,0,0,1.14-2.57,3.08-3.62,1.95-1.05,7.75,.85,8.53,2.02,.79,1.16,3.29,3.58,2.5,6.45-.78,2.87-1.23,6.32-4.21,7.73,0,0-1.18,2.06-5.05,2.34-3.87,.29-7.56-1.11-8.29-5.4Z" style="fill:#FFC727; opacity:.1;"></path></g><g><path d="M250.86,298.57s-4.87-4.08-5.67-7.53c-.8-3.45,2.26-8.4,2.26-8.4,0,0-.64-4.48,1.12-7.57,1.76-3.09,11.3-5.44,13.37-4.52,2.07,.92,7.54,2.09,8.92,6.68,1.37,4.58,3.7,9.68,.83,14.14,0,0,.14,3.82-4.91,7.51-5.04,3.69-11.27,4.92-15.92-.3Z" style="fill:#37474f;"></path><path d="M250.84,292.46s-3.64-3.04-4.24-5.62c-.6-2.58,2.38-4.86,2.38-4.86,0,0-2.5-3.49,.15-7.07,1.58-2.14,8.44-4.06,9.99-3.38,1.54,.68,5.63,1.56,6.66,4.99,1.03,3.42,2.76,7.23,.62,10.56,0,0,.1,2.85-3.66,5.61-3.77,2.75-8.42,3.68-11.89-.23Z" style="fill:#FFC727; opacity:.1;"></path><path d="M250.68,288.78s-2.49-2.09-2.9-3.85c-.41-1.77,1.63-3.33,1.63-3.33,0,0-1.71-2.39,.1-4.84,1.08-1.46,5.79-2.78,6.85-2.31s3.86,1.07,4.56,3.42c.7,2.35,1.89,4.95,.42,7.24,0,0,.07,1.95-2.51,3.84-2.58,1.89-5.77,2.52-8.15-.16Z" style="fill:#FFC727; opacity:.3;"></path></g><g><path d="M279.88,261.97s4.24,.23,6.06,3.03c1.83,2.79,6.8,6.4,6.08,11.74-.72,5.34-6.63,11.03-6.63,11.03,0,0-1.24,5.6-8.53,9.11-7.29,3.51-13.04,.67-16.39-2.77-3.35-3.44-1.73-13.21-1.73-13.21,0,0,.22-14.42,10.28-17.12,0,0,4.34-6.7,10.86-1.81Z" style="fill:#455a64;"></path><path d="M278.09,261.88s2.97,.16,4.26,2.12c1.28,1.96,4.77,4.49,4.27,8.24-.51,3.75-4.65,7.75-4.65,7.75,0,0-.87,3.93-5.99,6.4s-9.15,.47-11.51-1.95c-2.35-2.42-1.22-9.27-1.22-9.27,0,0,.15-10.12,7.22-12.02,0,0,3.04-4.7,7.63-1.27Z" style="fill:#FFC727; opacity:.1;"></path><path d="M276.99,261.88s1.85,.1,2.65,1.32c.8,1.22,2.97,2.8,2.66,5.13s-2.9,4.83-2.9,4.83c0,0-.54,2.45-3.73,3.99-3.19,1.54-5.7,.29-7.17-1.21-1.47-1.51-.76-5.78-.76-5.78,0,0,.09-6.31,4.5-7.49,0,0,1.9-2.93,4.75-.79Z" style="fill:#FFC727; opacity:.3;"></path></g><g><path d="M255.64,285.42s7.25-3,11.1,.4c3.85,3.4,9.43,11.29,9.2,14.18-.23,2.89-1.21,4.04-1.21,4.04,0,0,.74,8.33-3.39,13.9-4.13,5.58-13.69,6.75-18.05,5.02-4.37-1.73-13.08-6.81-12.34-13.78,0,0-4.37-6.69,1.62-11.38,0,0-.29-11.42,13.08-12.38Z" style="fill:#455a64;"></path><path d="M254.78,285.96s5.62-2.32,8.6,.31c2.98,2.64,7.31,8.75,7.13,10.99-.18,2.24-.94,3.13-.94,3.13,0,0,.58,6.46-2.63,10.78-3.2,4.32-10.61,5.23-14,3.89-3.39-1.34-10.14-5.28-9.57-10.69,0,0-3.39-5.18,1.26-8.83,0,0-.22-8.85,10.14-9.6Z" style="fill:#FFC727; opacity:.1;"></path><path d="M255.02,286.45s3.32-1.37,5.08,.18c1.76,1.56,4.31,5.16,4.21,6.48-.11,1.32-.56,1.85-.56,1.85,0,0,.34,3.81-1.55,6.36-1.89,2.55-6.26,3.09-8.26,2.3-2-.79-5.98-3.12-5.64-6.3,0,0-2-3.06,.74-5.21,0,0-.13-5.22,5.98-5.66Z" style="fill:#FFC727; opacity:.3;"></path></g></g><g><path d="M194.91,311.47s-5.17-.03-6.64-3.08c-1.47-3.05-2.85-9.27-1.97-10.97,.88-1.7,1.77-2.15,1.77-2.15,0,0,1.67-5.25,5.61-7.59,3.94-2.34,10.04-.61,12.25,1.56,2.21,2.17,6.21,7.48,3.98,11.53,0,0,.95,5.18-3.89,6.51,0,0-2.74,7.01-11.11,4.19Z" style="fill:#263238;"></path><path d="M216.65,308.31s5.48-1.79,8.52-.75c3.04,1.04,5.38,5.78,5.38,5.78,0,0,3.76,1.66,5.29,4.5,1.53,2.84-1.24,11.31-2.94,12.46-1.7,1.15-5.23,4.8-9.42,3.66-4.19-1.14-9.23-1.8-11.28-6.16,0,0-3-1.73-3.42-7.38-.42-5.65,1.62-11.04,7.88-12.11Z" style="fill:#263238;"></path><path d="M220.97,315.09s-2.14,4.71-5.52,4.81-9.62-1.18-10.82-2.68c-1.19-1.5-1.24-2.49-1.24-2.49,0,0-4.11-3.67-4.63-8.22-.52-4.55,3.55-9.41,6.43-10.55,2.88-1.13,9.36-2.61,12.15,1.08,0,0,5.12,1.25,4.35,6.21,0,0,5.28,5.37-.72,11.85Z" style="fill:#263238;"></path><g><path d="M215.62,334.48s-9.45-3.16-10.81-3.28c-1.36-.12-5.94,1.47-7.03,2.44s-11.05,9.35-11.05,9.35c0,0-7.55-5.14-8.21-5.98-.66-.84-3.86-7.61-3.86-7.61,0,0,12.9-13.54,14.22-14.64,1.32-1.09,.65-13.64,.65-13.64l3.66-1.13,1.65,9.35s2.7-4.38,2.97-4.98c.27-.6,.45-6.39,.45-6.39l6.03,1.14s1.54,6.94,1.5,8.14c-.04,1.2-2.59,6.94-2.59,6.94,0,0,6.52-3.31,7.63-3.77,1.11-.45,12.64,.42,12.64,.42l-.52,8.52s-8.26,.67-9.9,1.34c-1.64,.67-5,2.96-5,2.96,0,0,4.32,2.48,5.35,3.53,1.03,1.05,4.3,4.12,4.3,4.12l-1.6,2.76" style="fill:#455a64;"></path><path d="M215.62,334.48s-9.45-3.16-10.81-3.28c-1.36-.12-5.94,1.47-7.03,2.44s-11.05,9.35-11.05,9.35c0,0-7.55-5.14-8.21-5.98-.66-.84-3.86-7.61-3.86-7.61,0,0,12.9-13.54,14.22-14.64,1.32-1.09,.65-13.64,.65-13.64l3.66-1.13,1.65,9.35s2.7-4.38,2.97-4.98c.27-.6,.45-6.39,.45-6.39l6.03,1.14s1.54,6.94,1.5,8.14c-.04,1.2-2.59,6.94-2.59,6.94,0,0,6.52-3.31,7.63-3.77,1.11-.45,12.64,.42,12.64,.42l-.52,8.52s-8.26,.67-9.9,1.34c-1.64,.67-5,2.96-5,2.96,0,0,4.32,2.48,5.35,3.53,1.03,1.05,4.3,4.12,4.3,4.12l-1.6,2.76" style="fill:#FFC727; opacity:.3;"></path></g><g><path d="M222.87,348.17s-5.17-.03-6.64-3.08-2.85-9.27-1.97-10.97c.88-1.7,1.77-2.15,1.77-2.15,0,0,1.67-5.25,5.61-7.59,3.94-2.34,10.04-.61,12.25,1.56,2.21,2.17,6.21,7.48,3.98,11.53,0,0,.95,5.18-3.89,6.51,0,0-2.74,7.01-11.11,4.19Z" style="fill:#37474f;"></path><path d="M224.9,347.3s-3.68-.02-4.73-2.19c-1.05-2.17-2.03-6.6-1.41-7.81,.63-1.21,1.26-1.53,1.26-1.53,0,0,1.19-3.74,3.99-5.4s7.15-.43,8.73,1.11c1.58,1.54,4.42,5.33,2.83,8.21,0,0,.68,3.69-2.77,4.63,0,0-1.95,4.99-7.91,2.98Z" style="fill:#FFC727; opacity:.1;"></path><path d="M227.94,345.32s-2.24-.01-2.87-1.33c-.64-1.32-1.23-4.01-.85-4.75,.38-.73,.77-.93,.77-.93,0,0,.72-2.27,2.43-3.28,1.7-1.01,4.35-.26,5.3,.67,.96,.94,2.69,3.24,1.72,4.99,0,0,.41,2.24-1.68,2.82,0,0-1.19,3.04-4.81,1.81Z" style="fill:#FFC727; opacity:.3;"></path></g><g><path d="M246.42,310.8s3.69,6.33,3.21,10.38c-.48,4.06-5.74,8.23-5.74,8.23,0,0-1.06,5.11-4.18,7.77-3.12,2.66-14.39,1.47-16.27-.33-1.88-1.8-7.36-5.22-7.05-10.73,.3-5.51-.22-11.94,4.64-15.66,0,0,1.35-4.19,8.26-6.22,6.91-2.03,14.15-.93,17.15,6.56Z" style="fill:#455a64;"></path><path d="M245.64,315.62s2.75,4.73,2.39,7.75c-.36,3.03-4.29,6.14-4.29,6.14,0,0-.79,3.82-3.12,5.8-2.33,1.99-10.74,1.1-12.15-.25s-5.5-3.9-5.27-8.01c.23-4.11-.17-8.92,3.46-11.69,0,0,1.01-3.13,6.17-4.64,5.16-1.51,10.56-.69,12.81,4.9Z" style="fill:#FFC727; opacity:.1;"></path><path d="M244.89,320.21s1.82,3.13,1.58,5.13c-.24,2.01-2.84,4.07-2.84,4.07,0,0-.53,2.53-2.07,3.84-1.54,1.32-7.11,.73-8.05-.16-.93-.89-3.64-2.58-3.49-5.31,.15-2.72-.11-5.91,2.29-7.74,0,0,.67-2.07,4.08-3.08,3.42-1,7-.46,8.48,3.25Z" style="fill:#FFC727; opacity:.3;"></path></g><g><path d="M180.72,277.11s5.48-1.79,8.52-.75c3.04,1.04,5.38,5.78,5.38,5.78,0,0,3.76,1.66,5.29,4.5,1.53,2.84-1.24,11.31-2.94,12.46-1.7,1.15-5.23,4.8-9.42,3.66-4.19-1.14-9.23-1.8-11.28-6.15,0,0-3-1.73-3.42-7.38-.42-5.65,1.62-11.04,7.88-12.11Z" style="fill:#37474f;"></path><path d="M185.8,279.63s3.75-1.23,5.83-.51c2.08,.71,3.68,3.95,3.68,3.95,0,0,2.57,1.14,3.62,3.08,1.05,1.95-.85,7.75-2.02,8.53-1.16,.79-3.58,3.29-6.45,2.5-2.87-.78-6.32-1.23-7.73-4.21,0,0-2.06-1.18-2.34-5.05-.29-3.87,1.11-7.56,5.4-8.29Z" style="fill:#FFC727; opacity:.1;"></path></g><g><path d="M211.34,277.84s4.08-4.87,7.53-5.67c3.45-.8,8.4,2.26,8.4,2.26,0,0,4.48-.64,7.57,1.12,3.09,1.76,5.44,11.3,4.52,13.37-.92,2.07-2.09,7.54-6.68,8.92-4.58,1.37-9.68,3.7-14.14,.83,0,0-3.82,.14-7.51-4.91-3.69-5.04-4.92-11.27,.3-15.92Z" style="fill:#37474f;"></path><path d="M217.45,277.82s3.04-3.64,5.62-4.24c2.58-.6,4.86,2.38,4.86,2.38,0,0,3.49-2.5,7.07,.15,2.14,1.58,4.06,8.44,3.38,9.99-.69,1.54-1.56,5.63-4.99,6.66-3.42,1.03-7.23,2.76-10.56,.62,0,0-2.85,.1-5.61-3.66-2.75-3.77-3.68-8.42,.23-11.89Z" style="fill:#FFC727; opacity:.1;"></path><path d="M221.13,277.66s2.09-2.49,3.85-2.9c1.77-.41,3.33,1.63,3.33,1.63,0,0,2.39-1.71,4.84,.1,1.46,1.08,2.78,5.79,2.31,6.85s-1.07,3.86-3.42,4.56c-2.35,.7-4.95,1.89-7.24,.42,0,0-1.95,.07-3.84-2.51-1.89-2.58-2.52-5.77,.16-8.15Z" style="fill:#FFC727; opacity:.3;"></path></g><g><path d="M247.94,306.86s-.23,4.24-3.03,6.06c-2.79,1.83-6.4,6.8-11.74,6.08-5.34-.72-11.03-6.63-11.03-6.63,0,0-5.6-1.24-9.11-8.53-3.51-7.29-.67-13.04,2.77-16.39,3.44-3.35,13.21-1.73,13.21-1.73,0,0,14.42,.22,17.12,10.28,0,0,6.7,4.34,1.81,10.86Z" style="fill:#455a64;"></path><path d="M248.03,305.07s-.16,2.97-2.12,4.26c-1.96,1.28-4.49,4.77-8.24,4.27-3.75-.51-7.75-4.65-7.75-4.65,0,0-3.93-.87-6.4-5.99-2.47-5.12-.47-9.15,1.95-11.51,2.42-2.35,9.27-1.22,9.27-1.22,0,0,10.12,.15,12.02,7.22,0,0,4.7,3.04,1.27,7.63Z" style="fill:#FFC727; opacity:.1;"></path><path d="M248.03,303.97s-.1,1.85-1.32,2.65c-1.22,.8-2.8,2.97-5.13,2.66-2.34-.32-4.83-2.9-4.83-2.9,0,0-2.45-.54-3.99-3.73-1.54-3.19-.29-5.7,1.21-7.17,1.51-1.47,5.78-.76,5.78-.76,0,0,6.31,.09,7.49,4.5,0,0,2.93,1.9,.79,4.75Z" style="fill:#FFC727; opacity:.3;"></path></g><g><path d="M224.49,282.62s3,7.25-.4,11.1c-3.4,3.85-11.29,9.43-14.18,9.2-2.89-.23-4.04-1.21-4.04-1.21,0,0-8.33,.74-13.9-3.39-5.58-4.13-6.75-13.69-5.02-18.05,1.73-4.37,6.81-13.08,13.78-12.34,0,0,6.69-4.37,11.38,1.62,0,0,11.42-.29,12.38,13.08Z" style="fill:#455a64;"></path><path d="M223.94,281.76s2.32,5.62-.31,8.6c-2.64,2.98-8.75,7.31-10.99,7.13s-3.13-.94-3.13-.94c0,0-6.46,.58-10.78-2.63-4.33-3.2-5.23-10.61-3.89-14,1.34-3.39,5.28-10.14,10.69-9.57,0,0,5.18-3.39,8.83,1.26,0,0,8.85-.22,9.6,10.14Z" style="fill:#FFC727; opacity:.1;"></path><path d="M223.46,282s1.37,3.32-.18,5.08c-1.56,1.76-5.16,4.31-6.48,4.21-1.32-.11-1.85-.56-1.85-.56,0,0-3.81,.34-6.36-1.55-2.55-1.89-3.09-6.26-2.3-8.26,.79-2,3.12-5.98,6.3-5.64,0,0,3.06-2,5.21,.74,0,0,5.22-.13,5.66,5.98Z" style="fill:#FFC727; opacity:.3;"></path></g></g><g><path d="M240.49,343.05s-2.53,4.51-5.91,4.31c-3.38-.19-9.49-2.01-10.54-3.6-1.06-1.59-1.02-2.59-1.02-2.59,0,0-3.78-4.01-3.91-8.59-.13-4.57,4.34-9.07,7.31-9.96,2.97-.88,9.55-1.8,12.01,2.12,0,0,4.99,1.68,3.8,6.56,0,0,4.8,5.8-1.74,11.74Z" style="fill:#263238;"></path><path d="M248.28,322.51s1.09-5.66,3.48-7.81c2.39-2.15,7.66-1.9,7.66-1.9,0,0,3.28-2.48,6.5-2.44,3.23,.04,9.29,6.58,9.47,8.63,.18,2.04,1.66,6.91-1.38,10.01-3.03,3.11-6.06,7.19-10.86,6.88,0,0-2.97,1.79-8.11-.59-5.14-2.38-8.86-6.78-6.76-12.77Z" style="fill:#263238;"></path><path d="M256.31,322.03s3.08,4.16,1.52,7.16c-1.56,3.01-5.71,7.84-7.59,8.15-1.89,.32-2.78-.13-2.78-.13,0,0-5.21,1.81-9.44,.06-4.23-1.75-6.51-7.67-6.1-10.74,.41-3.07,2.26-9.46,6.84-10.1,0,0,3.58-3.87,7.54-.79,0,0,7.26-2.01,10.01,6.38Z" style="fill:#263238;"></path><g><path d="M270.66,336.12s-7.35,6.73-8.12,7.86c-.77,1.13-1.6,5.9-1.28,7.33,.32,1.43,2.81,14.2,2.81,14.2,0,0-8.16,4.11-9.21,4.28-1.05,.17-8.53-.32-8.53-.32,0,0-5.58-17.85-5.89-19.53-.31-1.68-11.61-7.19-11.61-7.19l.79-3.74,8.97,3.1s-2.52-4.49-2.91-5.01c-.39-.53-5.37-3.5-5.37-3.5l3.92-4.72s6.82,2.03,7.84,2.64c1.03,.61,4.81,5.63,4.81,5.63,0,0,.27-7.31,.41-8.5,.14-1.19,6.5-10.84,6.5-10.84l7.19,4.59s-3.43,7.55-3.64,9.3c-.21,1.76,.16,5.8,.16,5.8,0,0,4.27-2.57,5.68-2.96,1.42-.39,5.68-1.76,5.68-1.76l1.64,2.73" style="fill:#455a64;"></path><path d="M270.66,336.12s-7.35,6.73-8.12,7.86c-.77,1.13-1.6,5.9-1.28,7.33,.32,1.43,2.81,14.2,2.81,14.2,0,0-8.16,4.11-9.21,4.28-1.05,.17-8.53-.32-8.53-.32,0,0-5.58-17.85-5.89-19.53-.31-1.68-11.61-7.19-11.61-7.19l.79-3.74,8.97,3.1s-2.52-4.49-2.91-5.01c-.39-.53-5.37-3.5-5.37-3.5l3.92-4.72s6.82,2.03,7.84,2.64c1.03,.61,4.81,5.63,4.81,5.63,0,0,.27-7.31,.41-8.5,.14-1.19,6.5-10.84,6.5-10.84l7.19,4.59s-3.43,7.55-3.64,9.3c-.21,1.76,.16,5.8,.16,5.8,0,0,4.27-2.57,5.68-2.96,1.42-.39,5.68-1.76,5.68-1.76l1.64,2.73" style="fill:#FFC727; opacity:.3;"></path></g><g><path d="M286.14,336.43s-2.53,4.51-5.91,4.31c-3.38-.19-9.49-2.01-10.54-3.6-1.06-1.59-1.02-2.59-1.02-2.59,0,0-3.78-4.01-3.91-8.59-.13-4.58,4.34-9.07,7.31-9.96,2.97-.88,9.55-1.8,12.01,2.12,0,0,4.99,1.68,3.8,6.56,0,0,4.8,5.8-1.74,11.74Z" style="fill:#37474f;"></path><path d="M286.37,334.23s-1.81,3.21-4.21,3.07c-2.41-.14-6.76-1.43-7.51-2.56s-.72-1.84-.72-1.84c0,0-2.69-2.86-2.78-6.12-.09-3.26,3.09-6.46,5.21-7.09,2.11-.63,6.8-1.28,8.55,1.51,0,0,3.55,1.2,2.7,4.67,0,0,3.42,4.13-1.24,8.36Z" style="fill:#FFC727; opacity:.1;"></path><path d="M286.12,330.61s-1.1,1.95-2.56,1.87c-1.46-.08-4.11-.87-4.56-1.56-.46-.69-.44-1.12-.44-1.12,0,0-1.63-1.74-1.69-3.72-.06-1.98,1.88-3.93,3.16-4.31,1.28-.38,4.14-.78,5.2,.92,0,0,2.16,.73,1.64,2.84,0,0,2.08,2.51-.75,5.08Z" style="fill:#FFC727; opacity:.3;"></path></g><g><path d="M264.91,297.69s7.32-.15,10.63,2.24c3.31,2.39,4.4,9.01,4.4,9.01,0,0,3.95,3.41,4.76,7.43,.81,4.02-5.7,13.29-8.19,14.06-2.49,.77-8.14,3.9-12.8,.96-4.67-2.94-10.55-5.6-11.44-11.66,0,0-3.01-3.21-1.43-10.24,1.58-7.02,6.06-12.82,14.06-11.8Z" style="fill:#455a64;"></path><path d="M268.75,300.71s5.47-.11,7.94,1.67c2.47,1.79,3.29,6.73,3.29,6.73,0,0,2.95,2.55,3.56,5.55,.6,3-4.26,9.93-6.12,10.5-1.86,.58-6.08,2.91-9.56,.71-3.48-2.2-7.88-4.19-8.54-8.71,0,0-2.25-2.4-1.07-7.65,1.18-5.25,4.53-9.57,10.5-8.82Z" style="fill:#FFC727; opacity:.1;"></path><path d="M272.39,303.6s3.62-.07,5.26,1.11c1.64,1.18,2.18,4.46,2.18,4.46,0,0,1.95,1.69,2.35,3.67,.4,1.99-2.82,6.57-4.05,6.95-1.23,.38-4.02,1.93-6.33,.47-2.31-1.45-5.22-2.77-5.66-5.77,0,0-1.49-1.59-.71-5.06,.78-3.47,3-6.34,6.95-5.84Z" style="fill:#FFC727; opacity:.3;"></path></g><g><path d="M203.56,338.77s1.09-5.66,3.48-7.81c2.39-2.15,7.66-1.9,7.66-1.9,0,0,3.28-2.48,6.5-2.44,3.23,.04,9.29,6.58,9.47,8.63,.18,2.04,1.65,6.91-1.38,10.01-3.03,3.11-6.06,7.19-10.86,6.88,0,0-2.97,1.79-8.11-.59-5.14-2.38-8.86-6.78-6.76-12.77Z" style="fill:#37474f;"></path><path d="M208.23,335.55s.75-3.87,2.38-5.35c1.63-1.47,5.25-1.3,5.25-1.3,0,0,2.24-1.7,4.45-1.67,2.21,.03,6.36,4.51,6.48,5.91,.12,1.4,1.13,4.73-.94,6.85-2.08,2.13-4.15,4.92-7.43,4.71,0,0-2.03,1.22-5.56-.41-3.52-1.63-6.07-4.64-4.63-8.74Z" style="fill:#FFC727; opacity:.1;"></path></g><g><path d="M219.07,312.35s-2.28-5.93-1.3-9.33c.98-3.41,6.06-6.25,6.06-6.25,0,0,1.62-4.23,4.66-6.07,3.04-1.84,12.52,.74,13.88,2.54,1.36,1.81,5.58,5.49,4.55,10.17-1.02,4.67-1.47,10.26-6.14,12.76,0,0-1.73,3.4-7.93,4.18-6.2,.78-12.24-1.17-13.77-8Z" style="fill:#37474f;"></path><path d="M222.01,307.01s-1.7-4.43-.97-6.97c.73-2.54,4.44-3.09,4.44-3.09,0,0-.49-4.26,3.56-6.11,2.42-1.1,9.35,.55,10.37,1.9,1.02,1.35,4.17,4.1,3.4,7.59-.77,3.49-1.09,7.66-4.59,9.53,0,0-1.3,2.54-5.92,3.12-4.63,.58-9.14-.87-10.29-5.97Z" style="fill:#FFC727; opacity:.1;"></path><path d="M223.66,303.71s-1.17-3.04-.67-4.78c.5-1.74,3.05-2.12,3.05-2.12,0,0-.34-2.92,2.44-4.19,1.66-.75,6.41,.38,7.11,1.3,.7,.92,2.86,2.81,2.33,5.2-.52,2.39-.75,5.25-3.15,6.53,0,0-.89,1.74-4.06,2.14-3.17,.4-6.27-.6-7.05-4.09Z" style="fill:#FFC727; opacity:.3;"></path></g><g><path d="M262.21,294.46s3.59,2.26,3.83,5.59c.24,3.33,2.84,8.89-.39,13.21-3.22,4.32-11.15,6.43-11.15,6.43,0,0-3.81,4.29-11.88,3.82-8.08-.47-11.72-5.75-12.98-10.38-1.26-4.64,4.9-12.39,4.9-12.39,0,0,7.19-12.5,17.3-9.97,0,0,7.04-3.75,10.37,3.7Z" style="fill:#455a64;"></path><path d="M260.69,293.5s2.52,1.59,2.69,3.92c.17,2.34,1.99,6.24-.27,9.28-2.26,3.03-7.83,4.51-7.83,4.51,0,0-2.67,3.01-8.34,2.68-5.67-.33-8.23-4.04-9.11-7.29-.88-3.25,3.44-8.7,3.44-8.7,0,0,5.05-8.78,12.15-7,0,0,4.94-2.63,7.28,2.59Z" style="fill:#FFC727; opacity:.1;"></path><path d="M259.72,292.97s1.57,.99,1.68,2.44c.11,1.46,1.24,3.89-.17,5.78-1.41,1.89-4.88,2.81-4.88,2.81,0,0-1.66,1.88-5.2,1.67-3.53-.2-5.13-2.51-5.68-4.54-.55-2.03,2.14-5.42,2.14-5.42,0,0,3.14-5.47,7.57-4.36,0,0,3.08-1.64,4.54,1.62Z" style="fill:#FFC727; opacity:.3;"></path></g><g><path d="M229.63,303.18s7.79,.9,9.5,5.74c1.71,4.84,2.76,14.44,1.16,16.86-1.61,2.41-3.02,2.94-3.02,2.94,0,0-3.39,7.64-9.71,10.51-6.32,2.87-15.24-.75-18.22-4.38-2.98-3.63-8.12-12.31-4.09-18.04,0,0-.58-7.97,6.94-9.16,0,0,5.29-10.12,17.44-4.47Z" style="fill:#455a64;"></path><path d="M228.61,303.24s6.04,.7,7.37,4.45c1.33,3.75,2.14,11.2,.9,13.07-1.24,1.87-2.34,2.28-2.34,2.28,0,0-2.63,5.92-7.53,8.15-4.9,2.23-11.82-.58-14.13-3.39-2.31-2.82-6.3-9.54-3.17-13.99,0,0-.45-6.18,5.38-7.1,0,0,4.1-7.85,13.52-3.47Z" style="fill:#FFC727; opacity:.1;"></path><path d="M228.59,303.78s3.56,.41,4.35,2.63c.78,2.21,1.26,6.61,.53,7.71-.73,1.1-1.38,1.35-1.38,1.35,0,0-1.55,3.49-4.44,4.81-2.89,1.31-6.97-.34-8.33-2-1.36-1.66-3.72-5.63-1.87-8.25,0,0-.26-3.65,3.18-4.19,0,0,2.42-4.63,7.98-2.04Z" style="fill:#FFC727; opacity:.3;"></path></g></g></g><g><path d="M348.6,329.19s-25.57,85.62-59.01,85.62H112.54c-33.44,0-59.01-85.62-59.01-85.62H348.6Z" style="fill:#FFC727;"></path><g><path d="M344.67,340.96c-.9,2.49-1.93,5.29-3.11,8.31H60.57c-1.17-3.02-2.21-5.82-3.1-8.31H344.67Z" style="opacity:.1;"></path><path d="M339.19,355.23c-.56,1.36-1.15,2.75-1.75,4.16H64.7c-.61-1.41-1.19-2.8-1.75-4.16H339.19Z" style="opacity:.1;"></path></g><path d="M348.6,329.19s-1.39,4.64-3.93,11.77c-.9,2.49-1.93,5.29-3.11,8.31-.73,1.91-1.53,3.9-2.37,5.96-.56,1.36-1.15,2.75-1.75,4.16-10.58,24.65-27.8,55.42-47.85,55.42H145.08c26.2,0,110.33-2.02,130.62-20.98,18.64-17.42,34.2-58.18,36.59-64.64h36.31Z" style="opacity:.1;"></path></g></g></g><g id="freepik--Character_hand_1--inject-49"><g><g><path d="M182.83,473.89c-.03,1.45-.05,3.32-.1,5.58v.02c0,.2,0,.41,0,.62-.12,6.09-.29,4.8-.56,15.48,0,.32-.02,.64-.03,.96-.03,1.13-.05,2.27-.09,3.44H81.41c-.93-11.33-1.48-36.4-1.63-37.47-1.79-13.41,103.41-8.38,103.05,11.36Z" style="fill:#d3766a;"></path><g><path d="M79.78,464.17c-1.96-26.44,10.93-56.93,24.9-66.3,7.91-5.31,34.41-9.15,54.59-16.94,36.27-14.01,44.17-9.11,43.92-1.79-.39,11.24-29.85,29.63-29.85,29.63,0,0,72.45-1.83,94.37-8.75,16.29-5.14,27.34,3.48,12.29,15.61,0,0-6.99-8.74-3.48-9.99,20.29-7.22,31.36,4.64,24.56,11.25-14.82,14.43-46.67,23.36-58.47,26.61-26.85,7.4-46.5,15.68-48.54,17.43-9.08,7.76-23.26,38.04-23.26,38.04l-91.02-34.81Z" style="fill:#d3766a;"></path><g><path d="M286.36,403.41c.68,7.41-6.98,13.41-12.56,17.04-12.47,7.81-26.94,11.13-40.97,14.67-7.02,1.72-14.07,3.33-21.2,4.65,13.54-5.06,27.49-8.9,41.25-13.19,10.06-3.38,32.35-11.04,33.48-23.18h0Z" style="fill:#263238;"></path><path d="M173.33,408.77c-2.4,2.78-5.3,5.04-8.07,7.39-1.36,1.47-3.01,2.71-4.63,3.68-4.88,2.94-10.05,5.16-15.54,6.64,4.52-3.28,9.35-6.06,13.95-9.11,1.32-.9,2.57-1.73,3.6-2.78,.22-.22,.54-.51,.75-.67,3.04-2.23,6.36-3.96,9.94-5.15h0Z" style="fill:#263238;"></path></g></g></g><path d="M192.48,484.21c-.3,3.04-1.13,1.67-2.55,15.79H74.4c-.84-12.99-1.38-12.16-1.61-15.79h119.68Z" style="fill:#455a64;"></path></g></g><g id="freepik--Speech_Bubble_1--inject-49"><g><g><polygon points="244.41 44.55 244.41 131.24 208.33 131.24 201.06 145.8 193.8 131.24 157.72 131.24 157.72 44.55 244.41 44.55" style="fill:#fff;"></polygon><path d="M244.42,44.55c.11,21.78,.31,65.23,.32,87.01-.29,.06-36.1,.02-36.41,.07l.35-.22-7.24,14.58-.37,.75-.38-.75-7.29-14.55,.4,.25-36.09,.04h-.49v-.48c.18-.42,.03-86.65,.16-87.02,21.78,.06,65.25,.17,87.02,.32h0Zm0,0c-21.61,.16-65.1,.27-86.7,.32,.82-2.04,.25,86.82,.48,86.37l-.48-.48,36.09,.04h.28l.12,.25,7.23,14.58h-.75l7.29-14.55,.11-.22h.24l36.09,.07-.32,.32c.01-21.6,.21-65.1,.32-86.69h0Z" style="fill:#263238;"></path></g><path d="M220.29,93.7c-8.76,11.59-19.22,16.68-19.22,16.68,0,0-10.45-5.09-19.21-16.68-6.77-8.95-6.43-22.97,3.25-26,10.7-3.35,15.96,12.76,15.96,12.76,0,0,5.34-16.21,15.97-12.76,9.64,3.14,10.01,17.05,3.25,26Z" style="fill:#FFC727;"></path></g></g></svg>
